<svg version="1.1" viewBox="0.0 0.0 600.0 371.0" fill="none" stroke="none" stroke-linecap="square" stroke-miterlimit="10" width="600" height="371" xmlns:xlink="http://www.w3.org/1999/xlink" xmlns="http://www.w3.org/2000/svg"><path fill="#ffffff" d="M0 0L600.0 0L600.0 371.0L0 371.0L0 0Z" fill-rule="nonzero"/><path stroke="#333333" stroke-width="1.0" stroke-linecap="butt" d="M52.5 345.5L581.5 345.5" fill-rule="nonzero"/><path stroke="#cccccc" stroke-width="1.0" stroke-linecap="butt" d="M52.5 286.5L581.5 286.5" fill-rule="nonzero"/><path stroke="#cccccc" stroke-width="1.0" stroke-linecap="butt" d="M52.5 228.5L581.5 228.5" fill-rule="nonzero"/><path stroke="#cccccc" stroke-width="1.0" stroke-linecap="butt" d="M52.5 169.5L581.5 169.5" fill-rule="nonzero"/><path stroke="#cccccc" stroke-width="1.0" stroke-linecap="butt" d="M52.5 110.5L581.5 110.5" fill-rule="nonzero"/><path stroke="#cccccc" stroke-width="1.0" stroke-linecap="butt" d="M52.5 51.5L581.5 51.5" fill-rule="nonzero"/><path stroke="#eeeeee" stroke-width="1.0" stroke-linecap="butt" d="M90.328575 305.028L90.328575 321.028" fill-rule="nonzero"/><path stroke="#eeeeee" stroke-width="1.0" stroke-linecap="butt" d="M165.88571 248.4348L165.88571 264.4348" fill-rule="nonzero"/><path stroke="#eeeeee" stroke-width="1.0" stroke-linecap="butt" d="M241.44286 207.57497L241.44286 223.57497" fill-rule="nonzero"/><path stroke="#eeeeee" stroke-width="1.0" stroke-linecap="butt" d="M317.0 116.46221L317.0 132.46222" fill-rule="nonzero"/><path stroke="#eeeeee" stroke-width="1.0" stroke-linecap="butt" d="M392.55713 121.86323L392.55713 137.86322" fill-rule="nonzero"/><path stroke="#eeeeee" stroke-width="1.0" stroke-linecap="butt" d="M468.1143 90.396454L468.1143 106.396454" fill-rule="nonzero"/><path stroke="#eeeeee" stroke-width="1.0" stroke-linecap="butt" d="M543.67145 107.30397L543.67145 123.30397" fill-rule="nonzero"/><path stroke="#eeeeee" stroke-width="1.0" stroke-linecap="butt" d="M90.328575 329.45L90.328575 345.45" fill-rule="nonzero"/><path stroke="#eeeeee" stroke-width="1.0" stroke-linecap="butt" d="M165.88571 328.7455L165.88571 344.7455" fill-rule="nonzero"/><path stroke="#eeeeee" stroke-width="1.0" stroke-linecap="butt" d="M241.44286 329.21518L241.44286 345.21518" fill-rule="nonzero"/><path stroke="#eeeeee" stroke-width="1.0" stroke-linecap="butt" d="M317.0 328.7455L317.0 344.7455" fill-rule="nonzero"/><path stroke="#eeeeee" stroke-width="1.0" stroke-linecap="butt" d="M392.55713 329.45L392.55713 345.45" fill-rule="nonzero"/><path stroke="#eeeeee" stroke-width="1.0" stroke-linecap="butt" d="M468.1143 329.45L468.1143 345.45" fill-rule="nonzero"/><path stroke="#eeeeee" stroke-width="1.0" stroke-linecap="butt" d="M543.67145 328.7455L543.67145 344.7455" fill-rule="nonzero"/><clipPath id="id_0"><path d="M52.55 51.916668L581.45 51.916668L581.45 345.45L52.55 345.45L52.55 51.916668Z" clip-rule="nonzero"/></clipPath><path stroke="#ff00ff" stroke-width="2.0" stroke-linecap="butt" clip-path="url(#id_0)" d="M90.328575 321.028L165.88571 264.4348L241.44286 223.57497L317.0 132.46222L392.55713 137.86322L468.1143 106.396454L543.67145 123.30397" fill-rule="nonzero"/><path stroke="#3d85c6" stroke-width="2.0" stroke-linecap="butt" clip-path="url(#id_0)" d="M90.328575 345.45L165.88571 344.7455L241.44286 345.21518L317.0 344.7455L392.55713 345.45L468.1143 345.45L543.67145 344.7455" fill-rule="nonzero"/><path fill="#000000" fill-opacity="0.0" clip-path="url(#id_0)" d="M93.328575 321.028C93.328575 322.68488 91.98543 324.028 90.328575 324.028C88.671715 324.028 87.328575 322.68488 87.328575 321.028C87.328575 319.3712 88.671715 318.028 90.328575 318.028C91.98543 318.028 93.328575 319.3712 93.328575 321.028Z" fill-rule="nonzero"/><path fill="#000000" fill-opacity="0.0" clip-path="url(#id_0)" d="M168.88571 264.4348C168.88571 266.09164 167.54257 267.4348 165.88571 267.4348C164.22887 267.4348 162.88571 266.09164 162.88571 264.4348C162.88571 262.77795 164.22887 261.4348 165.88571 261.4348C167.54257 261.4348 168.88571 262.77795 168.88571 264.4348Z" fill-rule="nonzero"/><path fill="#000000" fill-opacity="0.0" clip-path="url(#id_0)" d="M244.44286 223.57497C244.44286 225.23181 243.09972 226.57497 241.44286 226.57497C239.786 226.57497 238.44286 225.23181 238.44286 223.57497C238.44286 221.9181 239.786 220.57497 241.44286 220.57497C243.09972 220.57497 244.44286 221.9181 244.44286 223.57497Z" fill-rule="nonzero"/><path fill="#000000" fill-opacity="0.0" clip-path="url(#id_0)" d="M320.0 132.46222C320.0 134.11906 318.65686 135.46222 317.0 135.46222C315.34314 135.46222 314.0 134.11906 314.0 132.46222C314.0 130.80536 315.34314 129.46222 317.0 129.46222C318.65686 129.46222 320.0 130.80536 320.0 132.46222Z" fill-rule="nonzero"/><path fill="#000000" fill-opacity="0.0" clip-path="url(#id_0)" d="M395.55713 137.86322C395.55713 139.52008 394.214 140.86322 392.55713 140.86322C390.9003 140.86322 389.55713 139.52008 389.55713 137.86322C389.55713 136.20638 390.9003 134.86322 392.55713 134.86322C394.214 134.86322 395.55713 136.20638 395.55713 137.86322Z" fill-rule="nonzero"/><path fill="#000000" fill-opacity="0.0" clip-path="url(#id_0)" d="M471.1143 106.396454C471.1143 108.05331 469.77115 109.396454 468.1143 109.396454C466.45743 109.396454 465.1143 108.05331 465.1143 106.396454C465.1143 104.7396 466.45743 103.396454 468.1143 103.396454C469.77115 103.396454 471.1143 104.7396 471.1143 106.396454Z" fill-rule="nonzero"/><path fill="#000000" fill-opacity="0.0" clip-path="url(#id_0)" d="M546.67145 123.30397C546.67145 124.96083 545.3283 126.30397 543.67145 126.30397C542.0146 126.30397 540.67145 124.96083 540.67145 123.30397C540.67145 121.64712 542.0146 120.30397 543.67145 120.30397C545.3283 120.30397 546.67145 121.64712 546.67145 123.30397Z" fill-rule="nonzero"/><path fill="#000000" fill-opacity="0.0" clip-path="url(#id_0)" d="M93.328575 345.45C93.328575 347.10684 91.98543 348.45 90.328575 348.45C88.671715 348.45 87.328575 347.10684 87.328575 345.45C87.328575 343.79315 88.671715 342.45 90.328575 342.45C91.98543 342.45 93.328575 343.79315 93.328575 345.45Z" fill-rule="nonzero"/><path fill="#000000" fill-opacity="0.0" clip-path="url(#id_0)" d="M168.88571 344.7455C168.88571 346.40237 167.54257 347.7455 165.88571 347.7455C164.22887 347.7455 162.88571 346.40237 162.88571 344.7455C162.88571 343.08865 164.22887 341.7455 165.88571 341.7455C167.54257 341.7455 168.88571 343.08865 168.88571 344.7455Z" fill-rule="nonzero"/><path fill="#000000" fill-opacity="0.0" clip-path="url(#id_0)" d="M244.44286 345.21518C244.44286 346.87204 243.09972 348.21518 241.44286 348.21518C239.786 348.21518 238.44286 346.87204 238.44286 345.21518C238.44286 343.55832 239.786 342.21518 241.44286 342.21518C243.09972 342.21518 244.44286 343.55832 244.44286 345.21518Z" fill-rule="nonzero"/><path fill="#000000" fill-opacity="0.0" clip-path="url(#id_0)" d="M320.0 344.7455C320.0 346.40237 318.65686 347.7455 317.0 347.7455C315.34314 347.7455 314.0 346.40237 314.0 344.7455C314.0 343.08865 315.34314 341.7455 317.0 341.7455C318.65686 341.7455 320.0 343.08865 320.0 344.7455Z" fill-rule="nonzero"/><path fill="#000000" fill-opacity="0.0" clip-path="url(#id_0)" d="M395.55713 345.45C395.55713 347.10684 394.214 348.45 392.55713 348.45C390.9003 348.45 389.55713 347.10684 389.55713 345.45C389.55713 343.79315 390.9003 342.45 392.55713 342.45C394.214 342.45 395.55713 343.79315 395.55713 345.45Z" fill-rule="nonzero"/><path fill="#000000" fill-opacity="0.0" clip-path="url(#id_0)" d="M471.1143 345.45C471.1143 347.10684 469.77115 348.45 468.1143 348.45C466.45743 348.45 465.1143 347.10684 465.1143 345.45C465.1143 343.79315 466.45743 342.45 468.1143 342.45C469.77115 342.45 471.1143 343.79315 471.1143 345.45Z" fill-rule="nonzero"/><path fill="#000000" fill-opacity="0.0" clip-path="url(#id_0)" d="M546.67145 344.7455C546.67145 346.40237 545.3283 347.7455 543.67145 347.7455C542.0146 347.7455 540.67145 346.40237 540.67145 344.7455C540.67145 343.08865 542.0146 341.7455 543.67145 341.7455C545.3283 341.7455 546.67145 343.08865 546.67145 344.7455Z" fill-rule="nonzero"/><path stroke="#ffffff" stroke-width="3.0" stroke-linejoin="round" stroke-linecap="round" d="M84.0942 294.4499L84.0942 303.028L83.016075 303.028L83.016075 295.80927L80.828575 296.60614L80.828575 295.62177L83.93795 294.4499L84.0942 294.4499ZM92.891075 298.0749L92.891075 299.3874Q92.891075 300.43427 92.703575 301.153Q92.516075 301.87177 92.1567 302.30927Q91.81295 302.74677 91.31295 302.9499Q90.828575 303.153 90.203575 303.153Q89.7192 303.153 89.297325 303.028Q88.87545 302.903 88.547325 302.6374Q88.2192 302.35614 87.984825 301.91864Q87.75045 301.48114 87.62545 300.85614Q87.50045 300.2155 87.50045 299.3874L87.50045 298.0749Q87.50045 297.028 87.68795 296.3249Q87.891075 295.62177 88.234825 295.18427Q88.5942 294.74677 89.078575 294.55927Q89.578575 294.37177 90.18795 294.37177Q90.68795 294.37177 91.109825 294.49677Q91.5317 294.62177 91.859825 294.8874Q92.18795 295.1374 92.4067 295.5749Q92.641075 295.99677 92.766075 296.62177Q92.891075 297.24677 92.891075 298.0749ZM91.797325 299.55927L91.797325 297.903Q91.797325 297.3249 91.734825 296.8874Q91.672325 296.4499 91.5317 296.1374Q91.4067 295.8249 91.203575 295.6374Q91.016075 295.4499 90.766075 295.35614Q90.516075 295.2624 90.18795 295.2624Q89.81295 295.2624 89.50045 295.403Q89.203575 295.54364 89.00045 295.85614Q88.797325 296.16864 88.68795 296.68427Q88.5942 297.18427 88.5942 297.903L88.5942 299.55927Q88.5942 300.1374 88.6567 300.5749Q88.734825 301.0124 88.859825 301.3405Q89.00045 301.653 89.18795 301.85614Q89.391075 302.05927 89.641075 302.153Q89.891075 302.24677 90.203575 302.24677Q90.609825 302.24677 90.9067 302.10614Q91.203575 301.9499 91.4067 301.62177Q91.609825 301.29364 91.703575 300.79364Q91.797325 300.278 91.797325 299.55927ZM100.297325 300.153L100.297325 301.04364L94.141075 301.04364L94.141075 300.403L97.953575 294.49677L98.8442 294.49677L97.891075 296.1999L95.37545 300.153L100.297325 300.153ZM99.109825 294.49677L99.109825 303.028L98.0317 303.028L98.0317 294.49677L99.109825 294.49677Z" fill-rule="nonzero"/><path fill="#ff00ff" d="M84.0942 294.4499L84.0942 303.028L83.016075 303.028L83.016075 295.80927L80.828575 296.60614L80.828575 295.62177L83.93795 294.4499L84.0942 294.4499ZM92.891075 298.0749L92.891075 299.3874Q92.891075 300.43427 92.703575 301.153Q92.516075 301.87177 92.1567 302.30927Q91.81295 302.74677 91.31295 302.9499Q90.828575 303.153 90.203575 303.153Q89.7192 303.153 89.297325 303.028Q88.87545 302.903 88.547325 302.6374Q88.2192 302.35614 87.984825 301.91864Q87.75045 301.48114 87.62545 300.85614Q87.50045 300.2155 87.50045 299.3874L87.50045 298.0749Q87.50045 297.028 87.68795 296.3249Q87.891075 295.62177 88.234825 295.18427Q88.5942 294.74677 89.078575 294.55927Q89.578575 294.37177 90.18795 294.37177Q90.68795 294.37177 91.109825 294.49677Q91.5317 294.62177 91.859825 294.8874Q92.18795 295.1374 92.4067 295.5749Q92.641075 295.99677 92.766075 296.62177Q92.891075 297.24677 92.891075 298.0749ZM91.797325 299.55927L91.797325 297.903Q91.797325 297.3249 91.734825 296.8874Q91.672325 296.4499 91.5317 296.1374Q91.4067 295.8249 91.203575 295.6374Q91.016075 295.4499 90.766075 295.35614Q90.516075 295.2624 90.18795 295.2624Q89.81295 295.2624 89.50045 295.403Q89.203575 295.54364 89.00045 295.85614Q88.797325 296.16864 88.68795 296.68427Q88.5942 297.18427 88.5942 297.903L88.5942 299.55927Q88.5942 300.1374 88.6567 300.5749Q88.734825 301.0124 88.859825 301.3405Q89.00045 301.653 89.18795 301.85614Q89.391075 302.05927 89.641075 302.153Q89.891075 302.24677 90.203575 302.24677Q90.609825 302.24677 90.9067 302.10614Q91.203575 301.9499 91.4067 301.62177Q91.609825 301.29364 91.703575 300.79364Q91.797325 300.278 91.797325 299.55927ZM100.297325 300.153L100.297325 301.04364L94.141075 301.04364L94.141075 300.403L97.953575 294.49677L98.8442 294.49677L97.891075 296.1999L95.37545 300.153L100.297325 300.153ZM99.109825 294.49677L99.109825 303.028L98.0317 303.028L98.0317 294.49677L99.109825 294.49677Z" fill-rule="nonzero"/><path stroke="#ffffff" stroke-width="3.0" stroke-linejoin="round" stroke-linecap="round" d="M157.68259 241.63792L158.44821 241.63792Q159.02634 241.63792 159.38571 241.45042Q159.76071 241.2473 159.94821 240.91917Q160.13571 240.59105 160.13571 240.16917Q160.13571 239.6848 159.96384 239.35667Q159.80759 239.01292 159.47946 238.84105Q159.15134 238.66917 158.65134 238.66917Q158.18259 238.66917 157.83884 238.85667Q157.49509 239.02855 157.29196 239.35667Q157.10446 239.6848 157.10446 240.13792L156.01071 240.13792Q156.01071 239.48167 156.33884 238.95042Q156.66696 238.41917 157.26071 238.10667Q157.85446 237.77855 158.65134 237.77855Q159.41696 237.77855 159.99509 238.0598Q160.57321 238.32542 160.90134 238.8723Q161.22946 239.40355 161.22946 240.20042Q161.22946 240.52855 161.07321 240.88792Q160.91696 241.2473 160.60446 241.57542Q160.29196 241.88792 159.79196 242.09105Q159.30759 242.29417 158.60446 242.29417L157.68259 242.29417L157.68259 241.63792ZM157.68259 242.52855L157.68259 241.8723L158.60446 241.8723Q159.41696 241.8723 159.94821 242.07542Q160.47946 242.26292 160.79196 242.59105Q161.10446 242.90355 161.22946 243.29417Q161.35446 243.66917 161.35446 244.0598Q161.35446 244.65355 161.15134 245.1223Q160.94821 245.57542 160.57321 245.90355Q160.21384 246.21605 159.71384 246.38792Q159.22946 246.5598 158.65134 246.5598Q158.08884 246.5598 157.60446 246.40355Q157.12009 246.23167 156.74509 245.9348Q156.37009 245.63792 156.15134 245.20042Q155.94821 244.7473 155.94821 244.1848L157.02634 244.1848Q157.02634 244.6223 157.21384 244.96605Q157.41696 245.29417 157.77634 245.48167Q158.15134 245.65355 158.65134 245.65355Q159.15134 245.65355 159.51071 245.48167Q159.87009 245.3098 160.05759 244.96605Q160.26071 244.60667 160.26071 244.07542Q160.26071 243.54417 160.04196 243.20042Q159.82321 242.85667 159.40134 242.70042Q158.99509 242.52855 158.44821 242.52855L157.68259 242.52855ZM168.85446 243.5598L168.85446 244.45042L162.69821 244.45042L162.69821 243.8098L166.51071 237.90355L167.40134 237.90355L166.44821 239.60667L163.93259 243.5598L168.85446 243.5598ZM167.66696 237.90355L167.66696 246.4348L166.58884 246.4348L166.58884 237.90355L167.66696 237.90355ZM171.46384 242.3723L170.60446 242.15355L171.02634 237.90355L175.40134 237.90355L175.40134 238.90355L171.94821 238.90355L171.68259 241.23167Q171.91696 241.09105 172.27634 240.98167Q172.65134 240.85667 173.12009 240.85667Q173.69821 240.85667 174.16696 241.0598Q174.63571 241.26292 174.96384 241.63792Q175.30759 242.01292 175.47946 242.54417Q175.65134 243.0598 175.65134 243.71605Q175.65134 244.32542 175.47946 244.84105Q175.32321 245.35667 174.97946 245.7473Q174.65134 246.1223 174.13571 246.34105Q173.63571 246.5598 172.94821 246.5598Q172.43259 246.5598 171.97946 246.41917Q171.52634 246.26292 171.15134 245.96605Q170.79196 245.66917 170.57321 245.23167Q170.35446 244.79417 170.29196 244.1848L171.32321 244.1848Q171.38571 244.66917 171.58884 244.9973Q171.80759 245.32542 172.15134 245.4973Q172.49509 245.65355 172.94821 245.65355Q173.33884 245.65355 173.63571 245.52855Q173.93259 245.38792 174.13571 245.13792Q174.35446 244.88792 174.46384 244.52855Q174.57321 244.16917 174.57321 243.73167Q174.57321 243.32542 174.44821 242.98167Q174.33884 242.63792 174.12009 242.38792Q173.90134 242.1223 173.58884 241.98167Q173.27634 241.82542 172.85446 241.82542Q172.32321 241.82542 172.04196 241.98167Q171.76071 242.1223 171.46384 242.3723Z" fill-rule="nonzero"/><path fill="#ff00ff" d="M157.68259 241.63792L158.44821 241.63792Q159.02634 241.63792 159.38571 241.45042Q159.76071 241.2473 159.94821 240.91917Q160.13571 240.59105 160.13571 240.16917Q160.13571 239.6848 159.96384 239.35667Q159.80759 239.01292 159.47946 238.84105Q159.15134 238.66917 158.65134 238.66917Q158.18259 238.66917 157.83884 238.85667Q157.49509 239.02855 157.29196 239.35667Q157.10446 239.6848 157.10446 240.13792L156.01071 240.13792Q156.01071 239.48167 156.33884 238.95042Q156.66696 238.41917 157.26071 238.10667Q157.85446 237.77855 158.65134 237.77855Q159.41696 237.77855 159.99509 238.0598Q160.57321 238.32542 160.90134 238.8723Q161.22946 239.40355 161.22946 240.20042Q161.22946 240.52855 161.07321 240.88792Q160.91696 241.2473 160.60446 241.57542Q160.29196 241.88792 159.79196 242.09105Q159.30759 242.29417 158.60446 242.29417L157.68259 242.29417L157.68259 241.63792ZM157.68259 242.52855L157.68259 241.8723L158.60446 241.8723Q159.41696 241.8723 159.94821 242.07542Q160.47946 242.26292 160.79196 242.59105Q161.10446 242.90355 161.22946 243.29417Q161.35446 243.66917 161.35446 244.0598Q161.35446 244.65355 161.15134 245.1223Q160.94821 245.57542 160.57321 245.90355Q160.21384 246.21605 159.71384 246.38792Q159.22946 246.5598 158.65134 246.5598Q158.08884 246.5598 157.60446 246.40355Q157.12009 246.23167 156.74509 245.9348Q156.37009 245.63792 156.15134 245.20042Q155.94821 244.7473 155.94821 244.1848L157.02634 244.1848Q157.02634 244.6223 157.21384 244.96605Q157.41696 245.29417 157.77634 245.48167Q158.15134 245.65355 158.65134 245.65355Q159.15134 245.65355 159.51071 245.48167Q159.87009 245.3098 160.05759 244.96605Q160.26071 244.60667 160.26071 244.07542Q160.26071 243.54417 160.04196 243.20042Q159.82321 242.85667 159.40134 242.70042Q158.99509 242.52855 158.44821 242.52855L157.68259 242.52855ZM168.85446 243.5598L168.85446 244.45042L162.69821 244.45042L162.69821 243.8098L166.51071 237.90355L167.40134 237.90355L166.44821 239.60667L163.93259 243.5598L168.85446 243.5598ZM167.66696 237.90355L167.66696 246.4348L166.58884 246.4348L166.58884 237.90355L167.66696 237.90355ZM171.46384 242.3723L170.60446 242.15355L171.02634 237.90355L175.40134 237.90355L175.40134 238.90355L171.94821 238.90355L171.68259 241.23167Q171.91696 241.09105 172.27634 240.98167Q172.65134 240.85667 173.12009 240.85667Q173.69821 240.85667 174.16696 241.0598Q174.63571 241.26292 174.96384 241.63792Q175.30759 242.01292 175.47946 242.54417Q175.65134 243.0598 175.65134 243.71605Q175.65134 244.32542 175.47946 244.84105Q175.32321 245.35667 174.97946 245.7473Q174.65134 246.1223 174.13571 246.34105Q173.63571 246.5598 172.94821 246.5598Q172.43259 246.5598 171.97946 246.41917Q171.52634 246.26292 171.15134 245.96605Q170.79196 245.66917 170.57321 245.23167Q170.35446 244.79417 170.29196 244.1848L171.32321 244.1848Q171.38571 244.66917 171.58884 244.9973Q171.80759 245.32542 172.15134 245.4973Q172.49509 245.65355 172.94821 245.65355Q173.33884 245.65355 173.63571 245.52855Q173.93259 245.38792 174.13571 245.13792Q174.35446 244.88792 174.46384 244.52855Q174.57321 244.16917 174.57321 243.73167Q174.57321 243.32542 174.44821 242.98167Q174.33884 242.63792 174.12009 242.38792Q173.90134 242.1223 173.58884 241.98167Q173.27634 241.82542 172.85446 241.82542Q172.32321 241.82542 172.04196 241.98167Q171.76071 242.1223 171.46384 242.3723Z" fill-rule="nonzero"/><path stroke="#ffffff" stroke-width="3.0" stroke-linejoin="round" stroke-linecap="round" d="M233.02098 201.51247L232.1616 201.29372L232.58348 197.04372L236.95848 197.04372L236.95848 198.04372L233.50536 198.04372L233.23973 200.37184Q233.4741 200.23122 233.83348 200.12184Q234.20848 199.99684 234.67723 199.99684Q235.25536 199.99684 235.7241 200.19997Q236.19286 200.40309 236.52098 200.77809Q236.86473 201.15309 237.0366 201.68434Q237.20848 202.19997 237.20848 202.85622Q237.20848 203.46559 237.0366 203.98122Q236.88036 204.49684 236.5366 204.88747Q236.20848 205.26247 235.69286 205.48122Q235.19286 205.69997 234.50536 205.69997Q233.98973 205.69997 233.5366 205.55934Q233.08348 205.40309 232.70848 205.10622Q232.3491 204.80934 232.13036 204.37184Q231.9116 203.93434 231.8491 203.32497L232.88036 203.32497Q232.94286 203.80934 233.14598 204.13747Q233.36473 204.46559 233.70848 204.63747Q234.05223 204.79372 234.50536 204.79372Q234.89598 204.79372 235.19286 204.66872Q235.48973 204.52809 235.69286 204.27809Q235.9116 204.02809 236.02098 203.66872Q236.13036 203.30934 236.13036 202.87184Q236.13036 202.46559 236.00536 202.12184Q235.89598 201.77809 235.67723 201.52809Q235.45848 201.26247 235.14598 201.12184Q234.83348 200.96559 234.4116 200.96559Q233.88036 200.96559 233.5991 201.12184Q233.31786 201.26247 233.02098 201.51247ZM242.20848 196.99684L242.20848 205.57497L241.13036 205.57497L241.13036 198.35622L238.94286 199.15309L238.94286 198.16872L242.05223 196.99684L242.20848 196.99684ZM246.7241 204.66872L246.8491 204.66872Q247.7866 204.66872 248.36473 204.40309Q248.95848 204.13747 249.27098 203.69997Q249.58348 203.24684 249.69286 202.68434Q249.81786 202.12184 249.81786 201.54372L249.81786 200.23122Q249.81786 199.65309 249.67723 199.19997Q249.55223 198.74684 249.31786 198.44997Q249.0991 198.13747 248.80223 197.98122Q248.50536 197.82497 248.17723 197.82497Q247.80223 197.82497 247.50536 197.98122Q247.20848 198.12184 247.00536 198.38747Q246.80223 198.65309 246.69286 199.02809Q246.5991 199.38747 246.5991 199.80934Q246.5991 200.19997 246.69286 200.55934Q246.7866 200.90309 246.9741 201.19997Q247.17723 201.48122 247.45848 201.65309Q247.75536 201.82497 248.14598 201.82497Q248.50536 201.82497 248.81786 201.68434Q249.14598 201.52809 249.39598 201.27809Q249.64598 201.02809 249.7866 200.71559Q249.94286 200.40309 249.95848 200.05934L250.4741 200.05934Q250.4741 200.54372 250.2866 201.01247Q250.0991 201.48122 249.75536 201.87184Q249.42723 202.26247 248.95848 202.49684Q248.50536 202.71559 247.9741 202.71559Q247.33348 202.71559 246.86473 202.48122Q246.4116 202.23122 246.11473 201.82497Q245.81786 201.40309 245.67723 200.90309Q245.5366 200.38747 245.5366 199.87184Q245.5366 199.26247 245.69286 198.73122Q245.86473 198.19997 246.19286 197.79372Q246.5366 197.38747 247.02098 197.15309Q247.52098 196.91872 248.17723 196.91872Q248.9116 196.91872 249.42723 197.21559Q249.94286 197.51247 250.27098 198.01247Q250.5991 198.49684 250.73973 199.12184Q250.89598 199.73122 250.89598 200.37184L250.89598 200.76247Q250.89598 201.43434 250.80223 202.12184Q250.7241 202.79372 250.48973 203.41872Q250.25536 204.04372 249.80223 204.52809Q249.3491 205.01247 248.61473 205.30934Q247.89598 205.59059 246.8491 205.59059L246.7241 205.59059L246.7241 204.66872Z" fill-rule="nonzero"/><path fill="#ff00ff" d="M233.02098 201.51247L232.1616 201.29372L232.58348 197.04372L236.95848 197.04372L236.95848 198.04372L233.50536 198.04372L233.23973 200.37184Q233.4741 200.23122 233.83348 200.12184Q234.20848 199.99684 234.67723 199.99684Q235.25536 199.99684 235.7241 200.19997Q236.19286 200.40309 236.52098 200.77809Q236.86473 201.15309 237.0366 201.68434Q237.20848 202.19997 237.20848 202.85622Q237.20848 203.46559 237.0366 203.98122Q236.88036 204.49684 236.5366 204.88747Q236.20848 205.26247 235.69286 205.48122Q235.19286 205.69997 234.50536 205.69997Q233.98973 205.69997 233.5366 205.55934Q233.08348 205.40309 232.70848 205.10622Q232.3491 204.80934 232.13036 204.37184Q231.9116 203.93434 231.8491 203.32497L232.88036 203.32497Q232.94286 203.80934 233.14598 204.13747Q233.36473 204.46559 233.70848 204.63747Q234.05223 204.79372 234.50536 204.79372Q234.89598 204.79372 235.19286 204.66872Q235.48973 204.52809 235.69286 204.27809Q235.9116 204.02809 236.02098 203.66872Q236.13036 203.30934 236.13036 202.87184Q236.13036 202.46559 236.00536 202.12184Q235.89598 201.77809 235.67723 201.52809Q235.45848 201.26247 235.14598 201.12184Q234.83348 200.96559 234.4116 200.96559Q233.88036 200.96559 233.5991 201.12184Q233.31786 201.26247 233.02098 201.51247ZM242.20848 196.99684L242.20848 205.57497L241.13036 205.57497L241.13036 198.35622L238.94286 199.15309L238.94286 198.16872L242.05223 196.99684L242.20848 196.99684ZM246.7241 204.66872L246.8491 204.66872Q247.7866 204.66872 248.36473 204.40309Q248.95848 204.13747 249.27098 203.69997Q249.58348 203.24684 249.69286 202.68434Q249.81786 202.12184 249.81786 201.54372L249.81786 200.23122Q249.81786 199.65309 249.67723 199.19997Q249.55223 198.74684 249.31786 198.44997Q249.0991 198.13747 248.80223 197.98122Q248.50536 197.82497 248.17723 197.82497Q247.80223 197.82497 247.50536 197.98122Q247.20848 198.12184 247.00536 198.38747Q246.80223 198.65309 246.69286 199.02809Q246.5991 199.38747 246.5991 199.80934Q246.5991 200.19997 246.69286 200.55934Q246.7866 200.90309 246.9741 201.19997Q247.17723 201.48122 247.45848 201.65309Q247.75536 201.82497 248.14598 201.82497Q248.50536 201.82497 248.81786 201.68434Q249.14598 201.52809 249.39598 201.27809Q249.64598 201.02809 249.7866 200.71559Q249.94286 200.40309 249.95848 200.05934L250.4741 200.05934Q250.4741 200.54372 250.2866 201.01247Q250.0991 201.48122 249.75536 201.87184Q249.42723 202.26247 248.95848 202.49684Q248.50536 202.71559 247.9741 202.71559Q247.33348 202.71559 246.86473 202.48122Q246.4116 202.23122 246.11473 201.82497Q245.81786 201.40309 245.67723 200.90309Q245.5366 200.38747 245.5366 199.87184Q245.5366 199.26247 245.69286 198.73122Q245.86473 198.19997 246.19286 197.79372Q246.5366 197.38747 247.02098 197.15309Q247.52098 196.91872 248.17723 196.91872Q248.9116 196.91872 249.42723 197.21559Q249.94286 197.51247 250.27098 198.01247Q250.5991 198.49684 250.73973 199.12184Q250.89598 199.73122 250.89598 200.37184L250.89598 200.76247Q250.89598 201.43434 250.80223 202.12184Q250.7241 202.79372 250.48973 203.41872Q250.25536 204.04372 249.80223 204.52809Q249.3491 205.01247 248.61473 205.30934Q247.89598 205.59059 246.8491 205.59059L246.7241 205.59059L246.7241 204.66872Z" fill-rule="nonzero"/><path stroke="#ffffff" stroke-width="3.0" stroke-linejoin="round" stroke-linecap="round" d="M308.28125 113.55596L308.40625 113.55596Q309.34375 113.55596 309.92188 113.29034Q310.51562 113.02471 310.82812 112.58721Q311.14062 112.13409 311.25 111.57159Q311.375 111.00909 311.375 110.43096L311.375 109.11846Q311.375 108.54034 311.23438 108.08721Q311.10938 107.63409 310.875 107.33721Q310.65625 107.02471 310.35938 106.86846Q310.0625 106.71221 309.73438 106.71221Q309.35938 106.71221 309.0625 106.86846Q308.76562 107.00909 308.5625 107.27471Q308.35938 107.54034 308.25 107.91534Q308.15625 108.27471 308.15625 108.69659Q308.15625 109.08721 308.25 109.44659Q308.34375 109.79034 308.53125 110.08721Q308.73438 110.36846 309.01562 110.54034Q309.3125 110.71221 309.70312 110.71221Q310.0625 110.71221 310.375 110.57159Q310.70312 110.41534 310.95312 110.16534Q311.20312 109.91534 311.34375 109.60284Q311.5 109.29034 311.51562 108.94659L312.03125 108.94659Q312.03125 109.43096 311.84375 109.89971Q311.65625 110.36846 311.3125 110.75909Q310.98438 111.14971 310.51562 111.38409Q310.0625 111.60284 309.53125 111.60284Q308.89062 111.60284 308.42188 111.36846Q307.96875 111.11846 307.67188 110.71221Q307.375 110.29034 307.23438 109.79034Q307.09375 109.27471 307.09375 108.75909Q307.09375 108.14971 307.25 107.61846Q307.42188 107.08721 307.75 106.68096Q308.09375 106.27471 308.57812 106.04034Q309.07812 105.80596 309.73438 105.80596Q310.46875 105.80596 310.98438 106.10284Q311.5 106.39971 311.82812 106.89971Q312.15625 107.38409 312.29688 108.00909Q312.45312 108.61846 312.45312 109.25909L312.45312 109.64971Q312.45312 110.32159 312.35938 111.00909Q312.28125 111.68096 312.04688 112.30596Q311.8125 112.93096 311.35938 113.41534Q310.90625 113.89971 310.17188 114.19659Q309.45312 114.47784 308.40625 114.47784L308.28125 114.47784L308.28125 113.55596ZM319.5625 109.50909L319.5625 110.82159Q319.5625 111.86846 319.375 112.58721Q319.1875 113.30596 318.82812 113.74346Q318.48438 114.18096 317.98438 114.38409Q317.5 114.58721 316.875 114.58721Q316.39062 114.58721 315.96875 114.46221Q315.54688 114.33721 315.21875 114.07159Q314.89062 113.79034 314.65625 113.35284Q314.42188 112.91534 314.29688 112.29034Q314.17188 111.64971 314.17188 110.82159L314.17188 109.50909Q314.17188 108.46221 314.35938 107.75909Q314.5625 107.05596 314.90625 106.61846Q315.26562 106.18096 315.75 105.99346Q316.25 105.80596 316.85938 105.80596Q317.35938 105.80596 317.78125 105.93096Q318.20312 106.05596 318.53125 106.32159Q318.85938 106.57159 319.07812 107.00909Q319.3125 107.43096 319.4375 108.05596Q319.5625 108.68096 319.5625 109.50909ZM318.46875 110.99346L318.46875 109.33721Q318.46875 108.75909 318.40625 108.32159Q318.34375 107.88409 318.20312 107.57159Q318.07812 107.25909 317.875 107.07159Q317.6875 106.88409 317.4375 106.79034Q317.1875 106.69659 316.85938 106.69659Q316.48438 106.69659 316.17188 106.83721Q315.875 106.97784 315.67188 107.29034Q315.46875 107.60284 315.35938 108.11846Q315.26562 108.61846 315.26562 109.33721L315.26562 110.99346Q315.26562 111.57159 315.32812 112.00909Q315.40625 112.44659 315.53125 112.77471Q315.67188 113.08721 315.85938 113.29034Q316.0625 113.49346 316.3125 113.58721Q316.5625 113.68096 316.875 113.68096Q317.28125 113.68096 317.57812 113.54034Q317.875 113.38409 318.07812 113.05596Q318.28125 112.72784 318.375 112.22784Q318.46875 111.71221 318.46875 110.99346ZM326.71875 105.93096L326.71875 106.54034L323.1875 114.46221L322.04688 114.46221L325.57812 106.82159L320.95312 106.82159L320.95312 105.93096L326.71875 105.93096Z" fill-rule="nonzero"/><path fill="#ff00ff" d="M308.28125 113.55596L308.40625 113.55596Q309.34375 113.55596 309.92188 113.29034Q310.51562 113.02471 310.82812 112.58721Q311.14062 112.13409 311.25 111.57159Q311.375 111.00909 311.375 110.43096L311.375 109.11846Q311.375 108.54034 311.23438 108.08721Q311.10938 107.63409 310.875 107.33721Q310.65625 107.02471 310.35938 106.86846Q310.0625 106.71221 309.73438 106.71221Q309.35938 106.71221 309.0625 106.86846Q308.76562 107.00909 308.5625 107.27471Q308.35938 107.54034 308.25 107.91534Q308.15625 108.27471 308.15625 108.69659Q308.15625 109.08721 308.25 109.44659Q308.34375 109.79034 308.53125 110.08721Q308.73438 110.36846 309.01562 110.54034Q309.3125 110.71221 309.70312 110.71221Q310.0625 110.71221 310.375 110.57159Q310.70312 110.41534 310.95312 110.16534Q311.20312 109.91534 311.34375 109.60284Q311.5 109.29034 311.51562 108.94659L312.03125 108.94659Q312.03125 109.43096 311.84375 109.89971Q311.65625 110.36846 311.3125 110.75909Q310.98438 111.14971 310.51562 111.38409Q310.0625 111.60284 309.53125 111.60284Q308.89062 111.60284 308.42188 111.36846Q307.96875 111.11846 307.67188 110.71221Q307.375 110.29034 307.23438 109.79034Q307.09375 109.27471 307.09375 108.75909Q307.09375 108.14971 307.25 107.61846Q307.42188 107.08721 307.75 106.68096Q308.09375 106.27471 308.57812 106.04034Q309.07812 105.80596 309.73438 105.80596Q310.46875 105.80596 310.98438 106.10284Q311.5 106.39971 311.82812 106.89971Q312.15625 107.38409 312.29688 108.00909Q312.45312 108.61846 312.45312 109.25909L312.45312 109.64971Q312.45312 110.32159 312.35938 111.00909Q312.28125 111.68096 312.04688 112.30596Q311.8125 112.93096 311.35938 113.41534Q310.90625 113.89971 310.17188 114.19659Q309.45312 114.47784 308.40625 114.47784L308.28125 114.47784L308.28125 113.55596ZM319.5625 109.50909L319.5625 110.82159Q319.5625 111.86846 319.375 112.58721Q319.1875 113.30596 318.82812 113.74346Q318.48438 114.18096 317.98438 114.38409Q317.5 114.58721 316.875 114.58721Q316.39062 114.58721 315.96875 114.46221Q315.54688 114.33721 315.21875 114.07159Q314.89062 113.79034 314.65625 113.35284Q314.42188 112.91534 314.29688 112.29034Q314.17188 111.64971 314.17188 110.82159L314.17188 109.50909Q314.17188 108.46221 314.35938 107.75909Q314.5625 107.05596 314.90625 106.61846Q315.26562 106.18096 315.75 105.99346Q316.25 105.80596 316.85938 105.80596Q317.35938 105.80596 317.78125 105.93096Q318.20312 106.05596 318.53125 106.32159Q318.85938 106.57159 319.07812 107.00909Q319.3125 107.43096 319.4375 108.05596Q319.5625 108.68096 319.5625 109.50909ZM318.46875 110.99346L318.46875 109.33721Q318.46875 108.75909 318.40625 108.32159Q318.34375 107.88409 318.20312 107.57159Q318.07812 107.25909 317.875 107.07159Q317.6875 106.88409 317.4375 106.79034Q317.1875 106.69659 316.85938 106.69659Q316.48438 106.69659 316.17188 106.83721Q315.875 106.97784 315.67188 107.29034Q315.46875 107.60284 315.35938 108.11846Q315.26562 108.61846 315.26562 109.33721L315.26562 110.99346Q315.26562 111.57159 315.32812 112.00909Q315.40625 112.44659 315.53125 112.77471Q315.67188 113.08721 315.85938 113.29034Q316.0625 113.49346 316.3125 113.58721Q316.5625 113.68096 316.875 113.68096Q317.28125 113.68096 317.57812 113.54034Q317.875 113.38409 318.07812 113.05596Q318.28125 112.72784 318.375 112.22784Q318.46875 111.71221 318.46875 110.99346ZM326.71875 105.93096L326.71875 106.54034L323.1875 114.46221L322.04688 114.46221L325.57812 106.82159L320.95312 106.82159L320.95312 105.93096L326.71875 105.93096Z" fill-rule="nonzero"/><path stroke="#ffffff" stroke-width="3.0" stroke-linejoin="round" stroke-linecap="round" d="M388.15088 117.55073Q388.15088 118.33198 387.7915 118.87885Q387.43213 119.4101 386.80713 119.70698Q386.19775 119.98823 385.43213 119.98823Q384.6665 119.98823 384.0415 119.70698Q383.43213 119.4101 383.07275 118.87885Q382.71338 118.33198 382.71338 117.55073Q382.71338 117.05073 382.9165 116.62885Q383.11963 116.19135 383.479 115.87885Q383.83838 115.56635 384.32275 115.39448Q384.82275 115.2226 385.4165 115.2226Q386.21338 115.2226 386.82275 115.51948Q387.43213 115.81635 387.7915 116.3476Q388.15088 116.87885 388.15088 117.55073ZM387.05713 117.5351Q387.05713 117.05073 386.854 116.69135Q386.65088 116.31635 386.27588 116.11323Q385.90088 115.9101 385.4165 115.9101Q384.9165 115.9101 384.55713 116.11323Q384.19775 116.31635 383.99463 116.69135Q383.80713 117.05073 383.80713 117.5351Q383.80713 118.01948 383.99463 118.37885Q384.19775 118.7226 384.55713 118.9101Q384.93213 119.08198 385.43213 119.08198Q385.93213 119.08198 386.2915 118.9101Q386.6665 118.7226 386.854 118.37885Q387.05713 118.01948 387.05713 117.5351ZM387.94775 113.55073Q387.94775 114.17573 387.61963 114.67573Q387.2915 115.17573 386.71338 115.45698Q386.15088 115.73823 385.43213 115.73823Q384.69775 115.73823 384.11963 115.45698Q383.55713 115.17573 383.229 114.67573Q382.9165 114.17573 382.9165 113.55073Q382.9165 112.80073 383.229 112.2851Q383.55713 111.76948 384.11963 111.48823Q384.69775 111.20698 385.43213 111.20698Q386.1665 111.20698 386.729 111.48823Q387.2915 111.76948 387.61963 112.2851Q387.94775 112.80073 387.94775 113.55073ZM386.86963 113.56635Q386.86963 113.14448 386.68213 112.81635Q386.49463 112.48823 386.1665 112.30073Q385.854 112.0976 385.43213 112.0976Q384.99463 112.0976 384.6665 112.2851Q384.354 112.45698 384.18213 112.7851Q384.01025 113.11323 384.01025 113.56635Q384.01025 114.00385 384.18213 114.33198Q384.354 114.6601 384.68213 114.8476Q385.01025 115.0351 385.43213 115.0351Q385.854 115.0351 386.1665 114.8476Q386.49463 114.6601 386.68213 114.33198Q386.86963 114.00385 386.86963 113.56635ZM395.15088 117.55073Q395.15088 118.33198 394.7915 118.87885Q394.43213 119.4101 393.80713 119.70698Q393.19775 119.98823 392.43213 119.98823Q391.6665 119.98823 391.0415 119.70698Q390.43213 119.4101 390.07275 118.87885Q389.71338 118.33198 389.71338 117.55073Q389.71338 117.05073 389.9165 116.62885Q390.11963 116.19135 390.479 115.87885Q390.83838 115.56635 391.32275 115.39448Q391.82275 115.2226 392.4165 115.2226Q393.21338 115.2226 393.82275 115.51948Q394.43213 115.81635 394.7915 116.3476Q395.15088 116.87885 395.15088 117.55073ZM394.05713 117.5351Q394.05713 117.05073 393.854 116.69135Q393.65088 116.31635 393.27588 116.11323Q392.90088 115.9101 392.4165 115.9101Q391.9165 115.9101 391.55713 116.11323Q391.19775 116.31635 390.99463 116.69135Q390.80713 117.05073 390.80713 117.5351Q390.80713 118.01948 390.99463 118.37885Q391.19775 118.7226 391.55713 118.9101Q391.93213 119.08198 392.43213 119.08198Q392.93213 119.08198 393.2915 118.9101Q393.6665 118.7226 393.854 118.37885Q394.05713 118.01948 394.05713 117.5351ZM394.94775 113.55073Q394.94775 114.17573 394.61963 114.67573Q394.2915 115.17573 393.71338 115.45698Q393.15088 115.73823 392.43213 115.73823Q391.69775 115.73823 391.11963 115.45698Q390.55713 115.17573 390.229 114.67573Q389.9165 114.17573 389.9165 113.55073Q389.9165 112.80073 390.229 112.2851Q390.55713 111.76948 391.11963 111.48823Q391.69775 111.20698 392.43213 111.20698Q393.1665 111.20698 393.729 111.48823Q394.2915 111.76948 394.61963 112.2851Q394.94775 112.80073 394.94775 113.55073ZM393.86963 113.56635Q393.86963 113.14448 393.68213 112.81635Q393.49463 112.48823 393.1665 112.30073Q392.854 112.0976 392.43213 112.0976Q391.99463 112.0976 391.6665 112.2851Q391.354 112.45698 391.18213 112.7851Q391.01025 113.11323 391.01025 113.56635Q391.01025 114.00385 391.18213 114.33198Q391.354 114.6601 391.68213 114.8476Q392.01025 115.0351 392.43213 115.0351Q392.854 115.0351 393.1665 114.8476Q393.49463 114.6601 393.68213 114.33198Q393.86963 114.00385 393.86963 113.56635ZM402.52588 116.98823L402.52588 117.87885L396.36963 117.87885L396.36963 117.23823L400.18213 111.33198L401.07275 111.33198L400.11963 113.0351L397.604 116.98823L402.52588 116.98823ZM401.33838 111.33198L401.33838 119.86323L400.26025 119.86323L400.26025 111.33198L401.33838 111.33198Z" fill-rule="nonzero"/><path fill="#ff00ff" d="M388.15088 117.55073Q388.15088 118.33198 387.7915 118.87885Q387.43213 119.4101 386.80713 119.70698Q386.19775 119.98823 385.43213 119.98823Q384.6665 119.98823 384.0415 119.70698Q383.43213 119.4101 383.07275 118.87885Q382.71338 118.33198 382.71338 117.55073Q382.71338 117.05073 382.9165 116.62885Q383.11963 116.19135 383.479 115.87885Q383.83838 115.56635 384.32275 115.39448Q384.82275 115.2226 385.4165 115.2226Q386.21338 115.2226 386.82275 115.51948Q387.43213 115.81635 387.7915 116.3476Q388.15088 116.87885 388.15088 117.55073ZM387.05713 117.5351Q387.05713 117.05073 386.854 116.69135Q386.65088 116.31635 386.27588 116.11323Q385.90088 115.9101 385.4165 115.9101Q384.9165 115.9101 384.55713 116.11323Q384.19775 116.31635 383.99463 116.69135Q383.80713 117.05073 383.80713 117.5351Q383.80713 118.01948 383.99463 118.37885Q384.19775 118.7226 384.55713 118.9101Q384.93213 119.08198 385.43213 119.08198Q385.93213 119.08198 386.2915 118.9101Q386.6665 118.7226 386.854 118.37885Q387.05713 118.01948 387.05713 117.5351ZM387.94775 113.55073Q387.94775 114.17573 387.61963 114.67573Q387.2915 115.17573 386.71338 115.45698Q386.15088 115.73823 385.43213 115.73823Q384.69775 115.73823 384.11963 115.45698Q383.55713 115.17573 383.229 114.67573Q382.9165 114.17573 382.9165 113.55073Q382.9165 112.80073 383.229 112.2851Q383.55713 111.76948 384.11963 111.48823Q384.69775 111.20698 385.43213 111.20698Q386.1665 111.20698 386.729 111.48823Q387.2915 111.76948 387.61963 112.2851Q387.94775 112.80073 387.94775 113.55073ZM386.86963 113.56635Q386.86963 113.14448 386.68213 112.81635Q386.49463 112.48823 386.1665 112.30073Q385.854 112.0976 385.43213 112.0976Q384.99463 112.0976 384.6665 112.2851Q384.354 112.45698 384.18213 112.7851Q384.01025 113.11323 384.01025 113.56635Q384.01025 114.00385 384.18213 114.33198Q384.354 114.6601 384.68213 114.8476Q385.01025 115.0351 385.43213 115.0351Q385.854 115.0351 386.1665 114.8476Q386.49463 114.6601 386.68213 114.33198Q386.86963 114.00385 386.86963 113.56635ZM395.15088 117.55073Q395.15088 118.33198 394.7915 118.87885Q394.43213 119.4101 393.80713 119.70698Q393.19775 119.98823 392.43213 119.98823Q391.6665 119.98823 391.0415 119.70698Q390.43213 119.4101 390.07275 118.87885Q389.71338 118.33198 389.71338 117.55073Q389.71338 117.05073 389.9165 116.62885Q390.11963 116.19135 390.479 115.87885Q390.83838 115.56635 391.32275 115.39448Q391.82275 115.2226 392.4165 115.2226Q393.21338 115.2226 393.82275 115.51948Q394.43213 115.81635 394.7915 116.3476Q395.15088 116.87885 395.15088 117.55073ZM394.05713 117.5351Q394.05713 117.05073 393.854 116.69135Q393.65088 116.31635 393.27588 116.11323Q392.90088 115.9101 392.4165 115.9101Q391.9165 115.9101 391.55713 116.11323Q391.19775 116.31635 390.99463 116.69135Q390.80713 117.05073 390.80713 117.5351Q390.80713 118.01948 390.99463 118.37885Q391.19775 118.7226 391.55713 118.9101Q391.93213 119.08198 392.43213 119.08198Q392.93213 119.08198 393.2915 118.9101Q393.6665 118.7226 393.854 118.37885Q394.05713 118.01948 394.05713 117.5351ZM394.94775 113.55073Q394.94775 114.17573 394.61963 114.67573Q394.2915 115.17573 393.71338 115.45698Q393.15088 115.73823 392.43213 115.73823Q391.69775 115.73823 391.11963 115.45698Q390.55713 115.17573 390.229 114.67573Q389.9165 114.17573 389.9165 113.55073Q389.9165 112.80073 390.229 112.2851Q390.55713 111.76948 391.11963 111.48823Q391.69775 111.20698 392.43213 111.20698Q393.1665 111.20698 393.729 111.48823Q394.2915 111.76948 394.61963 112.2851Q394.94775 112.80073 394.94775 113.55073ZM393.86963 113.56635Q393.86963 113.14448 393.68213 112.81635Q393.49463 112.48823 393.1665 112.30073Q392.854 112.0976 392.43213 112.0976Q391.99463 112.0976 391.6665 112.2851Q391.354 112.45698 391.18213 112.7851Q391.01025 113.11323 391.01025 113.56635Q391.01025 114.00385 391.18213 114.33198Q391.354 114.6601 391.68213 114.8476Q392.01025 115.0351 392.43213 115.0351Q392.854 115.0351 393.1665 114.8476Q393.49463 114.6601 393.68213 114.33198Q393.86963 114.00385 393.86963 113.56635ZM402.52588 116.98823L402.52588 117.87885L396.36963 117.87885L396.36963 117.23823L400.18213 111.33198L401.07275 111.33198L400.11963 113.0351L397.604 116.98823L402.52588 116.98823ZM401.33838 111.33198L401.33838 119.86323L400.26025 119.86323L400.26025 111.33198L401.33838 111.33198Z" fill-rule="nonzero"/><path stroke="#ffffff" stroke-width="3.0" stroke-linejoin="round" stroke-linecap="round" d="M458.3799 79.81833L458.3799 88.396454L457.3018 88.396454L457.3018 81.177704L455.1143 81.97458L455.1143 80.990204L458.22366 79.81833L458.3799 79.81833ZM467.1768 83.44333L467.1768 84.75583Q467.1768 85.802704 466.9893 86.521454Q466.8018 87.240204 466.4424 87.677704Q466.09866 88.115204 465.59866 88.31833Q465.1143 88.521454 464.4893 88.521454Q464.0049 88.521454 463.58304 88.396454Q463.16116 88.271454 462.83304 88.00583Q462.5049 87.72458 462.27054 87.28708Q462.03616 86.84958 461.91116 86.22458Q461.78616 85.583954 461.78616 84.75583L461.78616 83.44333Q461.78616 82.396454 461.97366 81.69333Q462.1768 80.990204 462.52054 80.552704Q462.8799 80.115204 463.3643 79.927704Q463.8643 79.740204 464.47366 79.740204Q464.97366 79.740204 465.39554 79.865204Q465.8174 79.990204 466.14554 80.25583Q466.47366 80.50583 466.6924 80.94333Q466.9268 81.365204 467.0518 81.990204Q467.1768 82.615204 467.1768 83.44333ZM466.08304 84.927704L466.08304 83.271454Q466.08304 82.69333 466.02054 82.25583Q465.95804 81.81833 465.8174 81.50583Q465.6924 81.19333 465.4893 81.00583Q465.3018 80.81833 465.0518 80.72458Q464.8018 80.63083 464.47366 80.63083Q464.09866 80.63083 463.78616 80.771454Q463.4893 80.91208 463.28616 81.22458Q463.08304 81.53708 462.97366 82.052704Q462.8799 82.552704 462.8799 83.271454L462.8799 84.927704Q462.8799 85.50583 462.9424 85.94333Q463.02054 86.38083 463.14554 86.708954Q463.28616 87.021454 463.47366 87.22458Q463.6768 87.427704 463.9268 87.521454Q464.1768 87.615204 464.4893 87.615204Q464.89554 87.615204 465.1924 87.47458Q465.4893 87.31833 465.6924 86.990204Q465.89554 86.66208 465.9893 86.16208Q466.08304 85.646454 466.08304 84.927704ZM472.3799 79.81833L472.3799 88.396454L471.3018 88.396454L471.3018 81.177704L469.1143 81.97458L469.1143 80.990204L472.22366 79.81833L472.3799 79.81833ZM481.20804 86.083954Q481.20804 86.865204 480.84866 87.41208Q480.4893 87.94333 479.8643 88.240204Q479.2549 88.521454 478.4893 88.521454Q477.72366 88.521454 477.09866 88.240204Q476.4893 87.94333 476.1299 87.41208Q475.77054 86.865204 475.77054 86.083954Q475.77054 85.583954 475.97366 85.16208Q476.1768 84.72458 476.53616 84.41208Q476.89554 84.09958 477.3799 83.927704Q477.8799 83.75583 478.47366 83.75583Q479.27054 83.75583 479.8799 84.052704Q480.4893 84.34958 480.84866 84.88083Q481.20804 85.41208 481.20804 86.083954ZM480.1143 86.06833Q480.1143 85.583954 479.91116 85.22458Q479.70804 84.84958 479.33304 84.646454Q478.95804 84.44333 478.47366 84.44333Q477.97366 84.44333 477.6143 84.646454Q477.2549 84.84958 477.0518 85.22458Q476.8643 85.583954 476.8643 86.06833Q476.8643 86.552704 477.0518 86.91208Q477.2549 87.25583 477.6143 87.44333Q477.9893 87.615204 478.4893 87.615204Q478.9893 87.615204 479.34866 87.44333Q479.72366 87.25583 479.91116 86.91208Q480.1143 86.552704 480.1143 86.06833ZM481.0049 82.083954Q481.0049 82.708954 480.6768 83.208954Q480.34866 83.708954 479.77054 83.990204Q479.20804 84.271454 478.4893 84.271454Q477.7549 84.271454 477.1768 83.990204Q476.6143 83.708954 476.28616 83.208954Q475.97366 82.708954 475.97366 82.083954Q475.97366 81.333954 476.28616 80.81833Q476.6143 80.302704 477.1768 80.021454Q477.7549 79.740204 478.4893 79.740204Q479.22366 79.740204 479.78616 80.021454Q480.34866 80.302704 480.6768 80.81833Q481.0049 81.333954 481.0049 82.083954ZM479.9268 82.09958Q479.9268 81.677704 479.7393 81.34958Q479.5518 81.021454 479.22366 80.833954Q478.91116 80.63083 478.4893 80.63083Q478.0518 80.63083 477.72366 80.81833Q477.41116 80.990204 477.2393 81.31833Q477.0674 81.646454 477.0674 82.09958Q477.0674 82.53708 477.2393 82.865204Q477.41116 83.19333 477.7393 83.38083Q478.0674 83.56833 478.4893 83.56833Q478.91116 83.56833 479.22366 83.38083Q479.5518 83.19333 479.7393 82.865204Q479.9268 82.53708 479.9268 82.09958Z" fill-rule="nonzero"/><path fill="#ff00ff" d="M458.3799 79.81833L458.3799 88.396454L457.3018 88.396454L457.3018 81.177704L455.1143 81.97458L455.1143 80.990204L458.22366 79.81833L458.3799 79.81833ZM467.1768 83.44333L467.1768 84.75583Q467.1768 85.802704 466.9893 86.521454Q466.8018 87.240204 466.4424 87.677704Q466.09866 88.115204 465.59866 88.31833Q465.1143 88.521454 464.4893 88.521454Q464.0049 88.521454 463.58304 88.396454Q463.16116 88.271454 462.83304 88.00583Q462.5049 87.72458 462.27054 87.28708Q462.03616 86.84958 461.91116 86.22458Q461.78616 85.583954 461.78616 84.75583L461.78616 83.44333Q461.78616 82.396454 461.97366 81.69333Q462.1768 80.990204 462.52054 80.552704Q462.8799 80.115204 463.3643 79.927704Q463.8643 79.740204 464.47366 79.740204Q464.97366 79.740204 465.39554 79.865204Q465.8174 79.990204 466.14554 80.25583Q466.47366 80.50583 466.6924 80.94333Q466.9268 81.365204 467.0518 81.990204Q467.1768 82.615204 467.1768 83.44333ZM466.08304 84.927704L466.08304 83.271454Q466.08304 82.69333 466.02054 82.25583Q465.95804 81.81833 465.8174 81.50583Q465.6924 81.19333 465.4893 81.00583Q465.3018 80.81833 465.0518 80.72458Q464.8018 80.63083 464.47366 80.63083Q464.09866 80.63083 463.78616 80.771454Q463.4893 80.91208 463.28616 81.22458Q463.08304 81.53708 462.97366 82.052704Q462.8799 82.552704 462.8799 83.271454L462.8799 84.927704Q462.8799 85.50583 462.9424 85.94333Q463.02054 86.38083 463.14554 86.708954Q463.28616 87.021454 463.47366 87.22458Q463.6768 87.427704 463.9268 87.521454Q464.1768 87.615204 464.4893 87.615204Q464.89554 87.615204 465.1924 87.47458Q465.4893 87.31833 465.6924 86.990204Q465.89554 86.66208 465.9893 86.16208Q466.08304 85.646454 466.08304 84.927704ZM472.3799 79.81833L472.3799 88.396454L471.3018 88.396454L471.3018 81.177704L469.1143 81.97458L469.1143 80.990204L472.22366 79.81833L472.3799 79.81833ZM481.20804 86.083954Q481.20804 86.865204 480.84866 87.41208Q480.4893 87.94333 479.8643 88.240204Q479.2549 88.521454 478.4893 88.521454Q477.72366 88.521454 477.09866 88.240204Q476.4893 87.94333 476.1299 87.41208Q475.77054 86.865204 475.77054 86.083954Q475.77054 85.583954 475.97366 85.16208Q476.1768 84.72458 476.53616 84.41208Q476.89554 84.09958 477.3799 83.927704Q477.8799 83.75583 478.47366 83.75583Q479.27054 83.75583 479.8799 84.052704Q480.4893 84.34958 480.84866 84.88083Q481.20804 85.41208 481.20804 86.083954ZM480.1143 86.06833Q480.1143 85.583954 479.91116 85.22458Q479.70804 84.84958 479.33304 84.646454Q478.95804 84.44333 478.47366 84.44333Q477.97366 84.44333 477.6143 84.646454Q477.2549 84.84958 477.0518 85.22458Q476.8643 85.583954 476.8643 86.06833Q476.8643 86.552704 477.0518 86.91208Q477.2549 87.25583 477.6143 87.44333Q477.9893 87.615204 478.4893 87.615204Q478.9893 87.615204 479.34866 87.44333Q479.72366 87.25583 479.91116 86.91208Q480.1143 86.552704 480.1143 86.06833ZM481.0049 82.083954Q481.0049 82.708954 480.6768 83.208954Q480.34866 83.708954 479.77054 83.990204Q479.20804 84.271454 478.4893 84.271454Q477.7549 84.271454 477.1768 83.990204Q476.6143 83.708954 476.28616 83.208954Q475.97366 82.708954 475.97366 82.083954Q475.97366 81.333954 476.28616 80.81833Q476.6143 80.302704 477.1768 80.021454Q477.7549 79.740204 478.4893 79.740204Q479.22366 79.740204 479.78616 80.021454Q480.34866 80.302704 480.6768 80.81833Q481.0049 81.333954 481.0049 82.083954ZM479.9268 82.09958Q479.9268 81.677704 479.7393 81.34958Q479.5518 81.021454 479.22366 80.833954Q478.91116 80.63083 478.4893 80.63083Q478.0518 80.63083 477.72366 80.81833Q477.41116 80.990204 477.2393 81.31833Q477.0674 81.646454 477.0674 82.09958Q477.0674 82.53708 477.2393 82.865204Q477.41116 83.19333 477.7393 83.38083Q478.0674 83.56833 478.4893 83.56833Q478.91116 83.56833 479.22366 83.38083Q479.5518 83.19333 479.7393 82.865204Q479.9268 82.53708 479.9268 82.09958Z" fill-rule="nonzero"/><path stroke="#ffffff" stroke-width="3.0" stroke-linejoin="round" stroke-linecap="round" d="M534.9527 104.39772L535.0777 104.39772Q536.0152 104.39772 536.5933 104.132095Q537.1871 103.86647 537.4996 103.42897Q537.8121 102.975845 537.92145 102.413345Q538.04645 101.850845 538.04645 101.27272L538.04645 99.96022Q538.04645 99.382095 537.9058 98.92897Q537.7808 98.475845 537.54645 98.17897Q537.3277 97.86647 537.0308 97.71022Q536.73395 97.55397 536.4058 97.55397Q536.0308 97.55397 535.73395 97.71022Q535.4371 97.850845 535.23395 98.11647Q535.0308 98.382095 534.92145 98.757095Q534.8277 99.11647 534.8277 99.538345Q534.8277 99.92897 534.92145 100.288345Q535.0152 100.632095 535.2027 100.92897Q535.4058 101.21022 535.6871 101.382095Q535.98395 101.55397 536.3746 101.55397Q536.73395 101.55397 537.04645 101.413345Q537.3746 101.257095 537.6246 101.007095Q537.8746 100.757095 538.0152 100.444595Q538.17145 100.132095 538.1871 99.788345L538.7027 99.788345Q538.7027 100.27272 538.5152 100.74147Q538.3277 101.21022 537.98395 101.600845Q537.6558 101.99147 537.1871 102.225845Q536.73395 102.444595 536.2027 102.444595Q535.5621 102.444595 535.0933 102.21022Q534.6402 101.96022 534.3433 101.55397Q534.04645 101.132095 533.9058 100.632095Q533.7652 100.11647 533.7652 99.600845Q533.7652 98.99147 533.92145 98.46022Q534.0933 97.92897 534.42145 97.52272Q534.7652 97.11647 535.2496 96.882095Q535.7496 96.64772 536.4058 96.64772Q537.1402 96.64772 537.6558 96.944595Q538.17145 97.24147 538.4996 97.74147Q538.8277 98.225845 538.9683 98.850845Q539.1246 99.46022 539.1246 100.100845L539.1246 100.49147Q539.1246 101.163345 539.0308 101.850845Q538.9527 102.52272 538.7183 103.14772Q538.48395 103.77272 538.0308 104.257095Q537.5777 104.74147 536.8433 105.038345Q536.1246 105.319595 535.0777 105.319595L534.9527 105.319595L534.9527 104.39772ZM546.6402 102.42897L546.6402 103.319595L540.48395 103.319595L540.48395 102.67897L544.29645 96.77272L545.1871 96.77272L544.23395 98.475845L541.7183 102.42897L546.6402 102.42897ZM545.4527 96.77272L545.4527 105.30397L544.3746 105.30397L544.3746 96.77272L545.4527 96.77272ZM552.04645 96.757095L552.1402 96.757095L552.1402 97.67897L552.04645 97.67897Q551.1871 97.67897 550.5933 97.96022Q550.0152 98.24147 549.67145 98.71022Q549.3433 99.163345 549.1871 99.757095Q549.04645 100.33522 549.04645 100.92897L549.04645 102.17897Q549.04645 102.74147 549.17145 103.17897Q549.3121 103.61647 549.54645 103.92897Q549.7808 104.225845 550.0777 104.382095Q550.3746 104.52272 550.6871 104.52272Q551.0621 104.52272 551.35895 104.382095Q551.6558 104.24147 551.85895 103.975845Q552.0621 103.71022 552.1558 103.36647Q552.2652 103.007095 552.2652 102.569595Q552.2652 102.194595 552.17145 101.83522Q552.0777 101.475845 551.8902 101.21022Q551.7027 100.92897 551.4058 100.77272Q551.10895 100.600845 550.7183 100.600845Q550.2652 100.600845 549.8746 100.819595Q549.48395 101.038345 549.23395 101.39772Q548.98395 101.757095 548.9527 102.163345L548.3746 102.163345Q548.4683 101.507095 548.6871 101.038345Q548.9058 100.569595 549.2496 100.27272Q549.5933 99.975845 549.9996 99.850845Q550.42145 99.71022 550.8902 99.71022Q551.5308 99.71022 551.98395 99.96022Q552.4527 100.194595 552.7496 100.600845Q553.0621 100.99147 553.2027 101.49147Q553.3433 101.99147 553.3433 102.52272Q553.3433 103.11647 553.17145 103.64772Q552.9996 104.17897 552.6558 104.58522Q552.3277 104.975845 551.8277 105.21022Q551.3433 105.42897 550.6871 105.42897Q549.9996 105.42897 549.48395 105.14772Q548.9683 104.850845 548.6246 104.382095Q548.29645 103.89772 548.1246 103.319595Q547.9527 102.74147 547.9527 102.14772L547.9527 101.632095Q547.9527 100.725845 548.1246 99.86647Q548.3121 98.99147 548.7652 98.288345Q549.2183 97.58522 550.0152 97.17897Q550.8121 96.757095 552.04645 96.757095Z" fill-rule="nonzero"/><path fill="#ff00ff" d="M534.9527 104.39772L535.0777 104.39772Q536.0152 104.39772 536.5933 104.132095Q537.1871 103.86647 537.4996 103.42897Q537.8121 102.975845 537.92145 102.413345Q538.04645 101.850845 538.04645 101.27272L538.04645 99.96022Q538.04645 99.382095 537.9058 98.92897Q537.7808 98.475845 537.54645 98.17897Q537.3277 97.86647 537.0308 97.71022Q536.73395 97.55397 536.4058 97.55397Q536.0308 97.55397 535.73395 97.71022Q535.4371 97.850845 535.23395 98.11647Q535.0308 98.382095 534.92145 98.757095Q534.8277 99.11647 534.8277 99.538345Q534.8277 99.92897 534.92145 100.288345Q535.0152 100.632095 535.2027 100.92897Q535.4058 101.21022 535.6871 101.382095Q535.98395 101.55397 536.3746 101.55397Q536.73395 101.55397 537.04645 101.413345Q537.3746 101.257095 537.6246 101.007095Q537.8746 100.757095 538.0152 100.444595Q538.17145 100.132095 538.1871 99.788345L538.7027 99.788345Q538.7027 100.27272 538.5152 100.74147Q538.3277 101.21022 537.98395 101.600845Q537.6558 101.99147 537.1871 102.225845Q536.73395 102.444595 536.2027 102.444595Q535.5621 102.444595 535.0933 102.21022Q534.6402 101.96022 534.3433 101.55397Q534.04645 101.132095 533.9058 100.632095Q533.7652 100.11647 533.7652 99.600845Q533.7652 98.99147 533.92145 98.46022Q534.0933 97.92897 534.42145 97.52272Q534.7652 97.11647 535.2496 96.882095Q535.7496 96.64772 536.4058 96.64772Q537.1402 96.64772 537.6558 96.944595Q538.17145 97.24147 538.4996 97.74147Q538.8277 98.225845 538.9683 98.850845Q539.1246 99.46022 539.1246 100.100845L539.1246 100.49147Q539.1246 101.163345 539.0308 101.850845Q538.9527 102.52272 538.7183 103.14772Q538.48395 103.77272 538.0308 104.257095Q537.5777 104.74147 536.8433 105.038345Q536.1246 105.319595 535.0777 105.319595L534.9527 105.319595L534.9527 104.39772ZM546.6402 102.42897L546.6402 103.319595L540.48395 103.319595L540.48395 102.67897L544.29645 96.77272L545.1871 96.77272L544.23395 98.475845L541.7183 102.42897L546.6402 102.42897ZM545.4527 96.77272L545.4527 105.30397L544.3746 105.30397L544.3746 96.77272L545.4527 96.77272ZM552.04645 96.757095L552.1402 96.757095L552.1402 97.67897L552.04645 97.67897Q551.1871 97.67897 550.5933 97.96022Q550.0152 98.24147 549.67145 98.71022Q549.3433 99.163345 549.1871 99.757095Q549.04645 100.33522 549.04645 100.92897L549.04645 102.17897Q549.04645 102.74147 549.17145 103.17897Q549.3121 103.61647 549.54645 103.92897Q549.7808 104.225845 550.0777 104.382095Q550.3746 104.52272 550.6871 104.52272Q551.0621 104.52272 551.35895 104.382095Q551.6558 104.24147 551.85895 103.975845Q552.0621 103.71022 552.1558 103.36647Q552.2652 103.007095 552.2652 102.569595Q552.2652 102.194595 552.17145 101.83522Q552.0777 101.475845 551.8902 101.21022Q551.7027 100.92897 551.4058 100.77272Q551.10895 100.600845 550.7183 100.600845Q550.2652 100.600845 549.8746 100.819595Q549.48395 101.038345 549.23395 101.39772Q548.98395 101.757095 548.9527 102.163345L548.3746 102.163345Q548.4683 101.507095 548.6871 101.038345Q548.9058 100.569595 549.2496 100.27272Q549.5933 99.975845 549.9996 99.850845Q550.42145 99.71022 550.8902 99.71022Q551.5308 99.71022 551.98395 99.96022Q552.4527 100.194595 552.7496 100.600845Q553.0621 100.99147 553.2027 101.49147Q553.3433 101.99147 553.3433 102.52272Q553.3433 103.11647 553.17145 103.64772Q552.9996 104.17897 552.6558 104.58522Q552.3277 104.975845 551.8277 105.21022Q551.3433 105.42897 550.6871 105.42897Q549.9996 105.42897 549.48395 105.14772Q548.9683 104.850845 548.6246 104.382095Q548.29645 103.89772 548.1246 103.319595Q547.9527 102.74147 547.9527 102.14772L547.9527 101.632095Q547.9527 100.725845 548.1246 99.86647Q548.3121 98.99147 548.7652 98.288345Q549.2183 97.58522 550.0152 97.17897Q550.8121 96.757095 552.04645 96.757095Z" fill-rule="nonzero"/><path stroke="#ffffff" stroke-width="3.0" stroke-linejoin="round" stroke-linecap="round" d="M92.891075 322.4969L92.891075 323.8094Q92.891075 324.85626 92.703575 325.575Q92.516075 326.29376 92.1567 326.73126Q91.81295 327.16876 91.31295 327.3719Q90.828575 327.575 90.203575 327.575Q89.7192 327.575 89.297325 327.45Q88.87545 327.325 88.547325 327.0594Q88.2192 326.77814 87.984825 326.34064Q87.75045 325.90314 87.62545 325.27814Q87.50045 324.6375 87.50045 323.8094L87.50045 322.4969Q87.50045 321.45 87.68795 320.7469Q87.891075 320.04376 88.234825 319.60626Q88.5942 319.16876 89.078575 318.98126Q89.578575 318.79376 90.18795 318.79376Q90.68795 318.79376 91.109825 318.91876Q91.5317 319.04376 91.859825 319.3094Q92.18795 319.5594 92.4067 319.9969Q92.641075 320.41876 92.766075 321.04376Q92.891075 321.66876 92.891075 322.4969ZM91.797325 323.98126L91.797325 322.325Q91.797325 321.7469 91.734825 321.3094Q91.672325 320.8719 91.5317 320.5594Q91.4067 320.2469 91.203575 320.0594Q91.016075 319.8719 90.766075 319.77814Q90.516075 319.6844 90.18795 319.6844Q89.81295 319.6844 89.50045 319.825Q89.203575 319.96564 89.00045 320.27814Q88.797325 320.59064 88.68795 321.10626Q88.5942 321.60626 88.5942 322.325L88.5942 323.98126Q88.5942 324.5594 88.6567 324.9969Q88.734825 325.4344 88.859825 325.7625Q89.00045 326.075 89.18795 326.27814Q89.391075 326.48126 89.641075 326.575Q89.891075 326.66876 90.203575 326.66876Q90.609825 326.66876 90.9067 326.52814Q91.203575 326.3719 91.4067 326.04376Q91.609825 325.71564 91.703575 325.21564Q91.797325 324.7 91.797325 323.98126Z" fill-rule="nonzero"/><path fill="#3d85c6" d="M92.891075 322.4969L92.891075 323.8094Q92.891075 324.85626 92.703575 325.575Q92.516075 326.29376 92.1567 326.73126Q91.81295 327.16876 91.31295 327.3719Q90.828575 327.575 90.203575 327.575Q89.7192 327.575 89.297325 327.45Q88.87545 327.325 88.547325 327.0594Q88.2192 326.77814 87.984825 326.34064Q87.75045 325.90314 87.62545 325.27814Q87.50045 324.6375 87.50045 323.8094L87.50045 322.4969Q87.50045 321.45 87.68795 320.7469Q87.891075 320.04376 88.234825 319.60626Q88.5942 319.16876 89.078575 318.98126Q89.578575 318.79376 90.18795 318.79376Q90.68795 318.79376 91.109825 318.91876Q91.5317 319.04376 91.859825 319.3094Q92.18795 319.5594 92.4067 319.9969Q92.641075 320.41876 92.766075 321.04376Q92.891075 321.66876 92.891075 322.4969ZM91.797325 323.98126L91.797325 322.325Q91.797325 321.7469 91.734825 321.3094Q91.672325 320.8719 91.5317 320.5594Q91.4067 320.2469 91.203575 320.0594Q91.016075 319.8719 90.766075 319.77814Q90.516075 319.6844 90.18795 319.6844Q89.81295 319.6844 89.50045 319.825Q89.203575 319.96564 89.00045 320.27814Q88.797325 320.59064 88.68795 321.10626Q88.5942 321.60626 88.5942 322.325L88.5942 323.98126Q88.5942 324.5594 88.6567 324.9969Q88.734825 325.4344 88.859825 325.7625Q89.00045 326.075 89.18795 326.27814Q89.391075 326.48126 89.641075 326.575Q89.891075 326.66876 90.203575 326.66876Q90.609825 326.66876 90.9067 326.52814Q91.203575 326.3719 91.4067 326.04376Q91.609825 325.71564 91.703575 325.21564Q91.797325 324.7 91.797325 323.98126Z" fill-rule="nonzero"/><path stroke="#ffffff" stroke-width="3.0" stroke-linejoin="round" stroke-linecap="round" d="M164.68259 321.94864L165.44821 321.94864Q166.02634 321.94864 166.38571 321.76114Q166.76071 321.558 166.94821 321.2299Q167.13571 320.90176 167.13571 320.4799Q167.13571 319.9955 166.96384 319.6674Q166.80759 319.32364 166.47946 319.15176Q166.15134 318.9799 165.65134 318.9799Q165.18259 318.9799 164.83884 319.1674Q164.49509 319.33926 164.29196 319.6674Q164.10446 319.9955 164.10446 320.44864L163.01071 320.44864Q163.01071 319.7924 163.33884 319.26114Q163.66696 318.7299 164.26071 318.4174Q164.85446 318.08926 165.65134 318.08926Q166.41696 318.08926 166.99509 318.3705Q167.57321 318.63614 167.90134 319.183Q168.22946 319.71426 168.22946 320.51114Q168.22946 320.83926 168.07321 321.19864Q167.91696 321.558 167.60446 321.88614Q167.29196 322.19864 166.79196 322.40176Q166.30759 322.6049 165.60446 322.6049L164.68259 322.6049L164.68259 321.94864ZM164.68259 322.83926L164.68259 322.183L165.60446 322.183Q166.41696 322.183 166.94821 322.38614Q167.47946 322.57364 167.79196 322.90176Q168.10446 323.21426 168.22946 323.6049Q168.35446 323.9799 168.35446 324.3705Q168.35446 324.96426 168.15134 325.433Q167.94821 325.88614 167.57321 326.21426Q167.21384 326.52676 166.71384 326.69864Q166.22946 326.8705 165.65134 326.8705Q165.08884 326.8705 164.60446 326.71426Q164.12009 326.5424 163.74509 326.2455Q163.37009 325.94864 163.15134 325.51114Q162.94821 325.058 162.94821 324.4955L164.02634 324.4955Q164.02634 324.933 164.21384 325.27676Q164.41696 325.6049 164.77634 325.7924Q165.15134 325.96426 165.65134 325.96426Q166.15134 325.96426 166.51071 325.7924Q166.87009 325.6205 167.05759 325.27676Q167.26071 324.9174 167.26071 324.38614Q167.26071 323.8549 167.04196 323.51114Q166.82321 323.1674 166.40134 323.01114Q165.99509 322.83926 165.44821 322.83926L164.68259 322.83926Z" fill-rule="nonzero"/><path fill="#3d85c6" d="M164.68259 321.94864L165.44821 321.94864Q166.02634 321.94864 166.38571 321.76114Q166.76071 321.558 166.94821 321.2299Q167.13571 320.90176 167.13571 320.4799Q167.13571 319.9955 166.96384 319.6674Q166.80759 319.32364 166.47946 319.15176Q166.15134 318.9799 165.65134 318.9799Q165.18259 318.9799 164.83884 319.1674Q164.49509 319.33926 164.29196 319.6674Q164.10446 319.9955 164.10446 320.44864L163.01071 320.44864Q163.01071 319.7924 163.33884 319.26114Q163.66696 318.7299 164.26071 318.4174Q164.85446 318.08926 165.65134 318.08926Q166.41696 318.08926 166.99509 318.3705Q167.57321 318.63614 167.90134 319.183Q168.22946 319.71426 168.22946 320.51114Q168.22946 320.83926 168.07321 321.19864Q167.91696 321.558 167.60446 321.88614Q167.29196 322.19864 166.79196 322.40176Q166.30759 322.6049 165.60446 322.6049L164.68259 322.6049L164.68259 321.94864ZM164.68259 322.83926L164.68259 322.183L165.60446 322.183Q166.41696 322.183 166.94821 322.38614Q167.47946 322.57364 167.79196 322.90176Q168.10446 323.21426 168.22946 323.6049Q168.35446 323.9799 168.35446 324.3705Q168.35446 324.96426 168.15134 325.433Q167.94821 325.88614 167.57321 326.21426Q167.21384 326.52676 166.71384 326.69864Q166.22946 326.8705 165.65134 326.8705Q165.08884 326.8705 164.60446 326.71426Q164.12009 326.5424 163.74509 326.2455Q163.37009 325.94864 163.15134 325.51114Q162.94821 325.058 162.94821 324.4955L164.02634 324.4955Q164.02634 324.933 164.21384 325.27676Q164.41696 325.6049 164.77634 325.7924Q165.15134 325.96426 165.65134 325.96426Q166.15134 325.96426 166.51071 325.7924Q166.87009 325.6205 167.05759 325.27676Q167.26071 324.9174 167.26071 324.38614Q167.26071 323.8549 167.04196 323.51114Q166.82321 323.1674 166.40134 323.01114Q165.99509 322.83926 165.44821 322.83926L164.68259 322.83926Z" fill-rule="nonzero"/><path stroke="#ffffff" stroke-width="3.0" stroke-linejoin="round" stroke-linecap="round" d="M242.20848 318.63705L242.20848 327.21518L241.13036 327.21518L241.13036 319.99643L238.94286 320.7933L238.94286 319.80893L242.05223 318.63705L242.20848 318.63705Z" fill-rule="nonzero"/><path fill="#3d85c6" d="M242.20848 318.63705L242.20848 327.21518L241.13036 327.21518L241.13036 319.99643L238.94286 320.7933L238.94286 319.80893L242.05223 318.63705L242.20848 318.63705Z" fill-rule="nonzero"/><path stroke="#ffffff" stroke-width="3.0" stroke-linejoin="round" stroke-linecap="round" d="M315.79688 321.94864L316.5625 321.94864Q317.14062 321.94864 317.5 321.76114Q317.875 321.558 318.0625 321.2299Q318.25 320.90176 318.25 320.4799Q318.25 319.9955 318.07812 319.6674Q317.92188 319.32364 317.59375 319.15176Q317.26562 318.9799 316.76562 318.9799Q316.29688 318.9799 315.95312 319.1674Q315.60938 319.33926 315.40625 319.6674Q315.21875 319.9955 315.21875 320.44864L314.125 320.44864Q314.125 319.7924 314.45312 319.26114Q314.78125 318.7299 315.375 318.4174Q315.96875 318.08926 316.76562 318.08926Q317.53125 318.08926 318.10938 318.3705Q318.6875 318.63614 319.01562 319.183Q319.34375 319.71426 319.34375 320.51114Q319.34375 320.83926 319.1875 321.19864Q319.03125 321.558 318.71875 321.88614Q318.40625 322.19864 317.90625 322.40176Q317.42188 322.6049 316.71875 322.6049L315.79688 322.6049L315.79688 321.94864ZM315.79688 322.83926L315.79688 322.183L316.71875 322.183Q317.53125 322.183 318.0625 322.38614Q318.59375 322.57364 318.90625 322.90176Q319.21875 323.21426 319.34375 323.6049Q319.46875 323.9799 319.46875 324.3705Q319.46875 324.96426 319.26562 325.433Q319.0625 325.88614 318.6875 326.21426Q318.32812 326.52676 317.82812 326.69864Q317.34375 326.8705 316.76562 326.8705Q316.20312 326.8705 315.71875 326.71426Q315.23438 326.5424 314.85938 326.2455Q314.48438 325.94864 314.26562 325.51114Q314.0625 325.058 314.0625 324.4955L315.14062 324.4955Q315.14062 324.933 315.32812 325.27676Q315.53125 325.6049 315.89062 325.7924Q316.26562 325.96426 316.76562 325.96426Q317.26562 325.96426 317.625 325.7924Q317.98438 325.6205 318.17188 325.27676Q318.375 324.9174 318.375 324.38614Q318.375 323.8549 318.15625 323.51114Q317.9375 323.1674 317.51562 323.01114Q317.10938 322.83926 316.5625 322.83926L315.79688 322.83926Z" fill-rule="nonzero"/><path fill="#3d85c6" d="M315.79688 321.94864L316.5625 321.94864Q317.14062 321.94864 317.5 321.76114Q317.875 321.558 318.0625 321.2299Q318.25 320.90176 318.25 320.4799Q318.25 319.9955 318.07812 319.6674Q317.92188 319.32364 317.59375 319.15176Q317.26562 318.9799 316.76562 318.9799Q316.29688 318.9799 315.95312 319.1674Q315.60938 319.33926 315.40625 319.6674Q315.21875 319.9955 315.21875 320.44864L314.125 320.44864Q314.125 319.7924 314.45312 319.26114Q314.78125 318.7299 315.375 318.4174Q315.96875 318.08926 316.76562 318.08926Q317.53125 318.08926 318.10938 318.3705Q318.6875 318.63614 319.01562 319.183Q319.34375 319.71426 319.34375 320.51114Q319.34375 320.83926 319.1875 321.19864Q319.03125 321.558 318.71875 321.88614Q318.40625 322.19864 317.90625 322.40176Q317.42188 322.6049 316.71875 322.6049L315.79688 322.6049L315.79688 321.94864ZM315.79688 322.83926L315.79688 322.183L316.71875 322.183Q317.53125 322.183 318.0625 322.38614Q318.59375 322.57364 318.90625 322.90176Q319.21875 323.21426 319.34375 323.6049Q319.46875 323.9799 319.46875 324.3705Q319.46875 324.96426 319.26562 325.433Q319.0625 325.88614 318.6875 326.21426Q318.32812 326.52676 317.82812 326.69864Q317.34375 326.8705 316.76562 326.8705Q316.20312 326.8705 315.71875 326.71426Q315.23438 326.5424 314.85938 326.2455Q314.48438 325.94864 314.26562 325.51114Q314.0625 325.058 314.0625 324.4955L315.14062 324.4955Q315.14062 324.933 315.32812 325.27676Q315.53125 325.6049 315.89062 325.7924Q316.26562 325.96426 316.76562 325.96426Q317.26562 325.96426 317.625 325.7924Q317.98438 325.6205 318.17188 325.27676Q318.375 324.9174 318.375 324.38614Q318.375 323.8549 318.15625 323.51114Q317.9375 323.1674 317.51562 323.01114Q317.10938 322.83926 316.5625 322.83926L315.79688 322.83926Z" fill-rule="nonzero"/><path stroke="#ffffff" stroke-width="3.0" stroke-linejoin="round" stroke-linecap="round" d="M395.11963 322.4969L395.11963 323.8094Q395.11963 324.85626 394.93213 325.575Q394.74463 326.29376 394.38525 326.73126Q394.0415 327.16876 393.5415 327.3719Q393.05713 327.575 392.43213 327.575Q391.94775 327.575 391.52588 327.45Q391.104 327.325 390.77588 327.0594Q390.44775 326.77814 390.21338 326.34064Q389.979 325.90314 389.854 325.27814Q389.729 324.6375 389.729 323.8094L389.729 322.4969Q389.729 321.45 389.9165 320.7469Q390.11963 320.04376 390.46338 319.60626Q390.82275 319.16876 391.30713 318.98126Q391.80713 318.79376 392.4165 318.79376Q392.9165 318.79376 393.33838 318.91876Q393.76025 319.04376 394.08838 319.3094Q394.4165 319.5594 394.63525 319.9969Q394.86963 320.41876 394.99463 321.04376Q395.11963 321.66876 395.11963 322.4969ZM394.02588 323.98126L394.02588 322.325Q394.02588 321.7469 393.96338 321.3094Q393.90088 320.8719 393.76025 320.5594Q393.63525 320.2469 393.43213 320.0594Q393.24463 319.8719 392.99463 319.77814Q392.74463 319.6844 392.4165 319.6844Q392.0415 319.6844 391.729 319.825Q391.43213 319.96564 391.229 320.27814Q391.02588 320.59064 390.9165 321.10626Q390.82275 321.60626 390.82275 322.325L390.82275 323.98126Q390.82275 324.5594 390.88525 324.9969Q390.96338 325.4344 391.08838 325.7625Q391.229 326.075 391.4165 326.27814Q391.61963 326.48126 391.86963 326.575Q392.11963 326.66876 392.43213 326.66876Q392.83838 326.66876 393.13525 326.52814Q393.43213 326.3719 393.63525 326.04376Q393.83838 325.71564 393.93213 325.21564Q394.02588 324.7 394.02588 323.98126Z" fill-rule="nonzero"/><path fill="#3d85c6" d="M395.11963 322.4969L395.11963 323.8094Q395.11963 324.85626 394.93213 325.575Q394.74463 326.29376 394.38525 326.73126Q394.0415 327.16876 393.5415 327.3719Q393.05713 327.575 392.43213 327.575Q391.94775 327.575 391.52588 327.45Q391.104 327.325 390.77588 327.0594Q390.44775 326.77814 390.21338 326.34064Q389.979 325.90314 389.854 325.27814Q389.729 324.6375 389.729 323.8094L389.729 322.4969Q389.729 321.45 389.9165 320.7469Q390.11963 320.04376 390.46338 319.60626Q390.82275 319.16876 391.30713 318.98126Q391.80713 318.79376 392.4165 318.79376Q392.9165 318.79376 393.33838 318.91876Q393.76025 319.04376 394.08838 319.3094Q394.4165 319.5594 394.63525 319.9969Q394.86963 320.41876 394.99463 321.04376Q395.11963 321.66876 395.11963 322.4969ZM394.02588 323.98126L394.02588 322.325Q394.02588 321.7469 393.96338 321.3094Q393.90088 320.8719 393.76025 320.5594Q393.63525 320.2469 393.43213 320.0594Q393.24463 319.8719 392.99463 319.77814Q392.74463 319.6844 392.4165 319.6844Q392.0415 319.6844 391.729 319.825Q391.43213 319.96564 391.229 320.27814Q391.02588 320.59064 390.9165 321.10626Q390.82275 321.60626 390.82275 322.325L390.82275 323.98126Q390.82275 324.5594 390.88525 324.9969Q390.96338 325.4344 391.08838 325.7625Q391.229 326.075 391.4165 326.27814Q391.61963 326.48126 391.86963 326.575Q392.11963 326.66876 392.43213 326.66876Q392.83838 326.66876 393.13525 326.52814Q393.43213 326.3719 393.63525 326.04376Q393.83838 325.71564 393.93213 325.21564Q394.02588 324.7 394.02588 323.98126Z" fill-rule="nonzero"/><path stroke="#ffffff" stroke-width="3.0" stroke-linejoin="round" stroke-linecap="round" d="M470.6768 322.4969L470.6768 323.8094Q470.6768 324.85626 470.4893 325.575Q470.3018 326.29376 469.9424 326.73126Q469.59866 327.16876 469.09866 327.3719Q468.6143 327.575 467.9893 327.575Q467.5049 327.575 467.08304 327.45Q466.66116 327.325 466.33304 327.0594Q466.0049 326.77814 465.77054 326.34064Q465.53616 325.90314 465.41116 325.27814Q465.28616 324.6375 465.28616 323.8094L465.28616 322.4969Q465.28616 321.45 465.47366 320.7469Q465.6768 320.04376 466.02054 319.60626Q466.3799 319.16876 466.8643 318.98126Q467.3643 318.79376 467.97366 318.79376Q468.47366 318.79376 468.89554 318.91876Q469.3174 319.04376 469.64554 319.3094Q469.97366 319.5594 470.1924 319.9969Q470.4268 320.41876 470.5518 321.04376Q470.6768 321.66876 470.6768 322.4969ZM469.58304 323.98126L469.58304 322.325Q469.58304 321.7469 469.52054 321.3094Q469.45804 320.8719 469.3174 320.5594Q469.1924 320.2469 468.9893 320.0594Q468.8018 319.8719 468.5518 319.77814Q468.3018 319.6844 467.97366 319.6844Q467.59866 319.6844 467.28616 319.825Q466.9893 319.96564 466.78616 320.27814Q466.58304 320.59064 466.47366 321.10626Q466.3799 321.60626 466.3799 322.325L466.3799 323.98126Q466.3799 324.5594 466.4424 324.9969Q466.52054 325.4344 466.64554 325.7625Q466.78616 326.075 466.97366 326.27814Q467.1768 326.48126 467.4268 326.575Q467.6768 326.66876 467.9893 326.66876Q468.39554 326.66876 468.6924 326.52814Q468.9893 326.3719 469.1924 326.04376Q469.39554 325.71564 469.4893 325.21564Q469.58304 324.7 469.58304 323.98126Z" fill-rule="nonzero"/><path fill="#3d85c6" d="M470.6768 322.4969L470.6768 323.8094Q470.6768 324.85626 470.4893 325.575Q470.3018 326.29376 469.9424 326.73126Q469.59866 327.16876 469.09866 327.3719Q468.6143 327.575 467.9893 327.575Q467.5049 327.575 467.08304 327.45Q466.66116 327.325 466.33304 327.0594Q466.0049 326.77814 465.77054 326.34064Q465.53616 325.90314 465.41116 325.27814Q465.28616 324.6375 465.28616 323.8094L465.28616 322.4969Q465.28616 321.45 465.47366 320.7469Q465.6768 320.04376 466.02054 319.60626Q466.3799 319.16876 466.8643 318.98126Q467.3643 318.79376 467.97366 318.79376Q468.47366 318.79376 468.89554 318.91876Q469.3174 319.04376 469.64554 319.3094Q469.97366 319.5594 470.1924 319.9969Q470.4268 320.41876 470.5518 321.04376Q470.6768 321.66876 470.6768 322.4969ZM469.58304 323.98126L469.58304 322.325Q469.58304 321.7469 469.52054 321.3094Q469.45804 320.8719 469.3174 320.5594Q469.1924 320.2469 468.9893 320.0594Q468.8018 319.8719 468.5518 319.77814Q468.3018 319.6844 467.97366 319.6844Q467.59866 319.6844 467.28616 319.825Q466.9893 319.96564 466.78616 320.27814Q466.58304 320.59064 466.47366 321.10626Q466.3799 321.60626 466.3799 322.325L466.3799 323.98126Q466.3799 324.5594 466.4424 324.9969Q466.52054 325.4344 466.64554 325.7625Q466.78616 326.075 466.97366 326.27814Q467.1768 326.48126 467.4268 326.575Q467.6768 326.66876 467.9893 326.66876Q468.39554 326.66876 468.6924 326.52814Q468.9893 326.3719 469.1924 326.04376Q469.39554 325.71564 469.4893 325.21564Q469.58304 324.7 469.58304 323.98126Z" fill-rule="nonzero"/><path stroke="#ffffff" stroke-width="3.0" stroke-linejoin="round" stroke-linecap="round" d="M542.4683 321.94864L543.23395 321.94864Q543.8121 321.94864 544.17145 321.76114Q544.54645 321.558 544.73395 321.2299Q544.92145 320.90176 544.92145 320.4799Q544.92145 319.9955 544.7496 319.6674Q544.5933 319.32364 544.2652 319.15176Q543.9371 318.9799 543.4371 318.9799Q542.9683 318.9799 542.6246 319.1674Q542.2808 319.33926 542.0777 319.6674Q541.8902 319.9955 541.8902 320.44864L540.79645 320.44864Q540.79645 319.7924 541.1246 319.26114Q541.4527 318.7299 542.04645 318.4174Q542.6402 318.08926 543.4371 318.08926Q544.2027 318.08926 544.7808 318.3705Q545.35895 318.63614 545.6871 319.183Q546.0152 319.71426 546.0152 320.51114Q546.0152 320.83926 545.85895 321.19864Q545.7027 321.558 545.3902 321.88614Q545.0777 322.19864 544.5777 322.40176Q544.0933 322.6049 543.3902 322.6049L542.4683 322.6049L542.4683 321.94864ZM542.4683 322.83926L542.4683 322.183L543.3902 322.183Q544.2027 322.183 544.73395 322.38614Q545.2652 322.57364 545.5777 322.90176Q545.8902 323.21426 546.0152 323.6049Q546.1402 323.9799 546.1402 324.3705Q546.1402 324.96426 545.9371 325.433Q545.73395 325.88614 545.35895 326.21426Q544.9996 326.52676 544.4996 326.69864Q544.0152 326.8705 543.4371 326.8705Q542.8746 326.8705 542.3902 326.71426Q541.9058 326.5424 541.5308 326.2455Q541.1558 325.94864 540.9371 325.51114Q540.73395 325.058 540.73395 324.4955L541.8121 324.4955Q541.8121 324.933 541.9996 325.27676Q542.2027 325.6049 542.5621 325.7924Q542.9371 325.96426 543.4371 325.96426Q543.9371 325.96426 544.29645 325.7924Q544.6558 325.6205 544.8433 325.27676Q545.04645 324.9174 545.04645 324.38614Q545.04645 323.8549 544.8277 323.51114Q544.60895 323.1674 544.1871 323.01114Q543.7808 322.83926 543.23395 322.83926L542.4683 322.83926Z" fill-rule="nonzero"/><path fill="#3d85c6" d="M542.4683 321.94864L543.23395 321.94864Q543.8121 321.94864 544.17145 321.76114Q544.54645 321.558 544.73395 321.2299Q544.92145 320.90176 544.92145 320.4799Q544.92145 319.9955 544.7496 319.6674Q544.5933 319.32364 544.2652 319.15176Q543.9371 318.9799 543.4371 318.9799Q542.9683 318.9799 542.6246 319.1674Q542.2808 319.33926 542.0777 319.6674Q541.8902 319.9955 541.8902 320.44864L540.79645 320.44864Q540.79645 319.7924 541.1246 319.26114Q541.4527 318.7299 542.04645 318.4174Q542.6402 318.08926 543.4371 318.08926Q544.2027 318.08926 544.7808 318.3705Q545.35895 318.63614 545.6871 319.183Q546.0152 319.71426 546.0152 320.51114Q546.0152 320.83926 545.85895 321.19864Q545.7027 321.558 545.3902 321.88614Q545.0777 322.19864 544.5777 322.40176Q544.0933 322.6049 543.3902 322.6049L542.4683 322.6049L542.4683 321.94864ZM542.4683 322.83926L542.4683 322.183L543.3902 322.183Q544.2027 322.183 544.73395 322.38614Q545.2652 322.57364 545.5777 322.90176Q545.8902 323.21426 546.0152 323.6049Q546.1402 323.9799 546.1402 324.3705Q546.1402 324.96426 545.9371 325.433Q545.73395 325.88614 545.35895 326.21426Q544.9996 326.52676 544.4996 326.69864Q544.0152 326.8705 543.4371 326.8705Q542.8746 326.8705 542.3902 326.71426Q541.9058 326.5424 541.5308 326.2455Q541.1558 325.94864 540.9371 325.51114Q540.73395 325.058 540.73395 324.4955L541.8121 324.4955Q541.8121 324.933 541.9996 325.27676Q542.2027 325.6049 542.5621 325.7924Q542.9371 325.96426 543.4371 325.96426Q543.9371 325.96426 544.29645 325.7924Q544.6558 325.6205 544.8433 325.27676Q545.04645 324.9174 545.04645 324.38614Q545.04645 323.8549 544.8277 323.51114Q544.60895 323.1674 544.1871 323.01114Q543.7808 322.83926 543.23395 322.83926L542.4683 322.83926Z" fill-rule="nonzero"/><path fill="#000000" d="M40.05 345.21564Q40.05 343.6844 40.3625 342.7625Q40.675 341.825 41.284374 341.325Q41.909374 340.825 42.846874 340.825Q43.534374 340.825 44.05 341.10626Q44.58125 341.3875 44.925 341.91876Q45.26875 342.4344 45.45625 343.1844Q45.64375 343.9344 45.64375 345.21564Q45.64375 346.73126 45.33125 347.65314Q45.034374 348.575 44.409374 349.09064Q43.8 349.59064 42.846874 349.59064Q41.6125 349.59064 40.89375 348.7Q40.05 347.6375 40.05 345.21564ZM41.128124 345.21564Q41.128124 347.325 41.628124 348.02814Q42.128124 348.73126 42.846874 348.73126Q43.58125 348.73126 44.065624 348.02814Q44.565624 347.325 44.565624 345.21564Q44.565624 343.09064 44.065624 342.40314Q43.58125 341.7 42.83125 341.7Q42.1125 341.7 41.675 342.3094Q41.128124 343.09064 41.128124 345.21564Z" fill-rule="nonzero"/><path fill="#000000" d="M31.596874 289.72772L31.596874 290.74335L25.909374 290.74335Q25.909374 290.36835 26.034374 290.00897Q26.253124 289.43085 26.721874 288.86835Q27.20625 288.30585 28.1125 287.57147Q29.51875 286.41522 30.003124 285.74335Q30.503124 285.07147 30.503124 284.47772Q30.503124 283.85272 30.05 283.43085Q29.596874 282.99335 28.878124 282.99335Q28.1125 282.99335 27.659374 283.44647Q27.20625 283.8996 27.190624 284.7121L26.1125 284.60272Q26.221874 283.38397 26.940624 282.75897Q27.675 282.11835 28.909374 282.11835Q30.14375 282.11835 30.8625 282.80585Q31.58125 283.49335 31.58125 284.50897Q31.58125 285.0246 31.3625 285.5246Q31.159374 286.00897 30.659374 286.57147Q30.175 287.11835 29.05 288.07147Q28.096874 288.86835 27.815624 289.16522Q27.55 289.44647 27.378124 289.72772L31.596874 289.72772ZM33.05 288.49335L34.159374 288.3996Q34.284374 289.2121 34.721874 289.61835Q35.175 290.0246 35.815624 290.0246Q36.565624 290.0246 37.096874 289.44647Q37.628124 288.86835 37.628124 287.93085Q37.628124 287.0246 37.1125 286.50897Q36.6125 285.97772 35.784374 285.97772Q35.284374 285.97772 34.8625 286.2121Q34.45625 286.44647 34.221874 286.80585L33.2375 286.68085L34.065624 282.2746L38.346874 282.2746L38.346874 283.2746L34.909374 283.2746L34.45625 285.5871Q35.221874 285.04022 36.065624 285.04022Q37.190624 285.04022 37.95625 285.82147Q38.7375 286.60272 38.7375 287.8371Q38.7375 288.99335 38.065624 289.85272Q37.2375 290.88397 35.815624 290.88397Q34.64375 290.88397 33.89375 290.22772Q33.159374 289.57147 33.05 288.49335ZM40.05 286.50897Q40.05 284.97772 40.3625 284.05585Q40.675 283.11835 41.284374 282.61835Q41.909374 282.11835 42.846874 282.11835Q43.534374 282.11835 44.05 282.3996Q44.58125 282.68085 44.925 283.2121Q45.26875 283.72772 45.45625 284.47772Q45.64375 285.22772 45.64375 286.50897Q45.64375 288.0246 45.33125 288.94647Q45.034374 289.86835 44.409374 290.38397Q43.8 290.88397 42.846874 290.88397Q41.6125 290.88397 40.89375 289.99335Q40.05 288.93085 40.05 286.50897ZM41.128124 286.50897Q41.128124 288.61835 41.628124 289.32147Q42.128124 290.0246 42.846874 290.0246Q43.58125 290.0246 44.065624 289.32147Q44.565624 288.61835 44.565624 286.50897Q44.565624 284.38397 44.065624 283.69647Q43.58125 282.99335 42.83125 282.99335Q42.1125 282.99335 41.675 283.60272Q41.128124 284.38397 41.128124 286.50897Z" fill-rule="nonzero"/><path fill="#000000" d="M26.05 229.78667L27.159374 229.69292Q27.284374 230.50542 27.721874 230.91167Q28.175 231.31792 28.815624 231.31792Q29.565624 231.31792 30.096874 230.73979Q30.628124 230.16167 30.628124 229.22417Q30.628124 228.31792 30.1125 227.80229Q29.6125 227.27104 28.784374 227.27104Q28.284374 227.27104 27.8625 227.50542Q27.45625 227.73979 27.221874 228.09917L26.2375 227.97417L27.065624 223.56792L31.346874 223.56792L31.346874 224.56792L27.909374 224.56792L27.45625 226.88042Q28.221874 226.33354 29.065624 226.33354Q30.190624 226.33354 30.95625 227.11479Q31.7375 227.89604 31.7375 229.13042Q31.7375 230.28667 31.065624 231.14604Q30.2375 232.17729 28.815624 232.17729Q27.64375 232.17729 26.89375 231.52104Q26.159374 230.86479 26.05 229.78667ZM33.05 227.80229Q33.05 226.27104 33.3625 225.34917Q33.675 224.41167 34.284374 223.91167Q34.909374 223.41167 35.846874 223.41167Q36.534374 223.41167 37.05 223.69292Q37.58125 223.97417 37.925 224.50542Q38.26875 225.02104 38.45625 225.77104Q38.64375 226.52104 38.64375 227.80229Q38.64375 229.31792 38.33125 230.23979Q38.034374 231.16167 37.409374 231.67729Q36.8 232.17729 35.846874 232.17729Q34.6125 232.17729 33.89375 231.28667Q33.05 230.22417 33.05 227.80229ZM34.128124 227.80229Q34.128124 229.91167 34.628124 230.61479Q35.128124 231.31792 35.846874 231.31792Q36.58125 231.31792 37.065624 230.61479Q37.565624 229.91167 37.565624 227.80229Q37.565624 225.67729 37.065624 224.98979Q36.58125 224.28667 35.83125 224.28667Q35.1125 224.28667 34.675 224.89604Q34.128124 225.67729 34.128124 227.80229ZM40.05 227.80229Q40.05 226.27104 40.3625 225.34917Q40.675 224.41167 41.284374 223.91167Q41.909374 223.41167 42.846874 223.41167Q43.534374 223.41167 44.05 223.69292Q44.58125 223.97417 44.925 224.50542Q45.26875 225.02104 45.45625 225.77104Q45.64375 226.52104 45.64375 227.80229Q45.64375 229.31792 45.33125 230.23979Q45.034374 231.16167 44.409374 231.67729Q43.8 232.17729 42.846874 232.17729Q41.6125 232.17729 40.89375 231.28667Q40.05 230.22417 40.05 227.80229ZM41.128124 227.80229Q41.128124 229.91167 41.628124 230.61479Q42.128124 231.31792 42.846874 231.31792Q43.58125 231.31792 44.065624 230.61479Q44.565624 229.91167 44.565624 227.80229Q44.565624 225.67729 44.065624 224.98979Q43.58125 224.28667 42.83125 224.28667Q42.1125 224.28667 41.675 224.89604Q41.128124 225.67729 41.128124 227.80229Z" fill-rule="nonzero"/><path fill="#000000" d="M26.1125 165.86125L26.1125 164.84563L31.675 164.84563L31.675 165.67375Q30.8625 166.54875 30.05 168.00188Q29.253124 169.43938 28.815624 170.97063Q28.4875 172.04875 28.409374 173.33L27.315624 173.33Q27.33125 172.31438 27.70625 170.87688Q28.096874 169.43938 28.8 168.11125Q29.51875 166.78313 30.33125 165.86125L26.1125 165.86125ZM33.05 171.08L34.159374 170.98625Q34.284374 171.79875 34.721874 172.205Q35.175 172.61125 35.815624 172.61125Q36.565624 172.61125 37.096874 172.03313Q37.628124 171.455 37.628124 170.5175Q37.628124 169.61125 37.1125 169.09563Q36.6125 168.56438 35.784374 168.56438Q35.284374 168.56438 34.8625 168.79875Q34.45625 169.03313 34.221874 169.3925L33.2375 169.2675L34.065624 164.86125L38.346874 164.86125L38.346874 165.86125L34.909374 165.86125L34.45625 168.17375Q35.221874 167.62688 36.065624 167.62688Q37.190624 167.62688 37.95625 168.40813Q38.7375 169.18938 38.7375 170.42375Q38.7375 171.58 38.065624 172.43938Q37.2375 173.47063 35.815624 173.47063Q34.64375 173.47063 33.89375 172.81438Q33.159374 172.15813 33.05 171.08ZM40.05 169.09563Q40.05 167.56438 40.3625 166.6425Q40.675 165.705 41.284374 165.205Q41.909374 164.705 42.846874 164.705Q43.534374 164.705 44.05 164.98625Q44.58125 165.2675 44.925 165.79875Q45.26875 166.31438 45.45625 167.06438Q45.64375 167.81438 45.64375 169.09563Q45.64375 170.61125 45.33125 171.53313Q45.034374 172.455 44.409374 172.97063Q43.8 173.47063 42.846874 173.47063Q41.6125 173.47063 40.89375 172.58Q40.05 171.5175 40.05 169.09563ZM41.128124 169.09563Q41.128124 171.205 41.628124 171.90813Q42.128124 172.61125 42.846874 172.61125Q43.58125 172.61125 44.065624 171.90813Q44.565624 171.205 44.565624 169.09563Q44.565624 166.97063 44.065624 166.28313Q43.58125 165.58 42.83125 165.58Q42.1125 165.58 41.675 166.18938Q41.128124 166.97063 41.128124 169.09563Z" fill-rule="nonzero"/><path fill="#000000" d="M23.01875 114.62334L21.971874 114.62334L21.971874 107.90459Q21.58125 108.26396 20.95625 108.63896Q20.346874 108.99834 19.8625 109.17021L19.8625 108.15459Q20.7375 107.73271 21.39375 107.15459Q22.065624 106.56084 22.346874 105.99834L23.01875 105.99834L23.01875 114.62334ZM26.05 110.38896Q26.05 108.85771 26.3625 107.93584Q26.675 106.99834 27.284374 106.49834Q27.909374 105.99834 28.846874 105.99834Q29.534374 105.99834 30.05 106.27959Q30.58125 106.56084 30.925 107.09209Q31.26875 107.60771 31.45625 108.35771Q31.64375 109.10771 31.64375 110.38896Q31.64375 111.90459 31.33125 112.82646Q31.034374 113.74834 30.409374 114.26396Q29.8 114.76396 28.846874 114.76396Q27.6125 114.76396 26.89375 113.87334Q26.05 112.81084 26.05 110.38896ZM27.128124 110.38896Q27.128124 112.49834 27.628124 113.20146Q28.128124 113.90459 28.846874 113.90459Q29.58125 113.90459 30.065624 113.20146Q30.565624 112.49834 30.565624 110.38896Q30.565624 108.26396 30.065624 107.57646Q29.58125 106.87334 28.83125 106.87334Q28.1125 106.87334 27.675 107.48271Q27.128124 108.26396 27.128124 110.38896ZM33.05 110.38896Q33.05 108.85771 33.3625 107.93584Q33.675 106.99834 34.284374 106.49834Q34.909374 105.99834 35.846874 105.99834Q36.534374 105.99834 37.05 106.27959Q37.58125 106.56084 37.925 107.09209Q38.26875 107.60771 38.45625 108.35771Q38.64375 109.10771 38.64375 110.38896Q38.64375 111.90459 38.33125 112.82646Q38.034374 113.74834 37.409374 114.26396Q36.8 114.76396 35.846874 114.76396Q34.6125 114.76396 33.89375 113.87334Q33.05 112.81084 33.05 110.38896ZM34.128124 110.38896Q34.128124 112.49834 34.628124 113.20146Q35.128124 113.90459 35.846874 113.90459Q36.58125 113.90459 37.065624 113.20146Q37.565624 112.49834 37.565624 110.38896Q37.565624 108.26396 37.065624 107.57646Q36.58125 106.87334 35.83125 106.87334Q35.1125 106.87334 34.675 107.48271Q34.128124 108.26396 34.128124 110.38896ZM40.05 110.38896Q40.05 108.85771 40.3625 107.93584Q40.675 106.99834 41.284374 106.49834Q41.909374 105.99834 42.846874 105.99834Q43.534374 105.99834 44.05 106.27959Q44.58125 106.56084 44.925 107.09209Q45.26875 107.60771 45.45625 108.35771Q45.64375 109.10771 45.64375 110.38896Q45.64375 111.90459 45.33125 112.82646Q45.034374 113.74834 44.409374 114.26396Q43.8 114.76396 42.846874 114.76396Q41.6125 114.76396 40.89375 113.87334Q40.05 112.81084 40.05 110.38896ZM41.128124 110.38896Q41.128124 112.49834 41.628124 113.20146Q42.128124 113.90459 42.846874 113.90459Q43.58125 113.90459 44.065624 113.20146Q44.565624 112.49834 44.565624 110.38896Q44.565624 108.26396 44.065624 107.57646Q43.58125 106.87334 42.83125 106.87334Q42.1125 106.87334 41.675 107.48271Q41.128124 108.26396 41.128124 110.38896Z" fill-rule="nonzero"/><path fill="#000000" d="M23.01875 55.916668L21.971874 55.916668L21.971874 49.197918Q21.58125 49.557293 20.95625 49.932293Q20.346874 50.291668 19.8625 50.463543L19.8625 49.447918Q20.7375 49.026043 21.39375 48.447918Q22.065624 47.854168 22.346874 47.291668L23.01875 47.291668L23.01875 55.916668ZM31.596874 54.901043L31.596874 55.916668L25.909374 55.916668Q25.909374 55.541668 26.034374 55.182293Q26.253124 54.604168 26.721874 54.041668Q27.20625 53.479168 28.1125 52.744793Q29.51875 51.588543 30.003124 50.916668Q30.503124 50.244793 30.503124 49.651043Q30.503124 49.026043 30.05 48.604168Q29.596874 48.166668 28.878124 48.166668Q28.1125 48.166668 27.659374 48.619793Q27.20625 49.072918 27.190624 49.885418L26.1125 49.776043Q26.221874 48.557293 26.940624 47.932293Q27.675 47.291668 28.909374 47.291668Q30.14375 47.291668 30.8625 47.979168Q31.58125 48.666668 31.58125 49.682293Q31.58125 50.197918 31.3625 50.697918Q31.159374 51.182293 30.659374 51.744793Q30.175 52.291668 29.05 53.244793Q28.096874 54.041668 27.815624 54.338543Q27.55 54.619793 27.378124 54.901043L31.596874 54.901043ZM33.05 53.666668L34.159374 53.572918Q34.284374 54.385418 34.721874 54.791668Q35.175 55.197918 35.815624 55.197918Q36.565624 55.197918 37.096874 54.619793Q37.628124 54.041668 37.628124 53.104168Q37.628124 52.197918 37.1125 51.682293Q36.6125 51.151043 35.784374 51.151043Q35.284374 51.151043 34.8625 51.385418Q34.45625 51.619793 34.221874 51.979168L33.2375 51.854168L34.065624 47.447918L38.346874 47.447918L38.346874 48.447918L34.909374 48.447918L34.45625 50.760418Q35.221874 50.213543 36.065624 50.213543Q37.190624 50.213543 37.95625 50.994793Q38.7375 51.776043 38.7375 53.010418Q38.7375 54.166668 38.065624 55.026043Q37.2375 56.057293 35.815624 56.057293Q34.64375 56.057293 33.89375 55.401043Q33.159374 54.744793 33.05 53.666668ZM40.05 51.682293Q40.05 50.151043 40.3625 49.229168Q40.675 48.291668 41.284374 47.791668Q41.909374 47.291668 42.846874 47.291668Q43.534374 47.291668 44.05 47.572918Q44.58125 47.854168 44.925 48.385418Q45.26875 48.901043 45.45625 49.651043Q45.64375 50.401043 45.64375 51.682293Q45.64375 53.197918 45.33125 54.119793Q45.034374 55.041668 44.409374 55.557293Q43.8 56.057293 42.846874 56.057293Q41.6125 56.057293 40.89375 55.166668Q40.05 54.104168 40.05 51.682293ZM41.128124 51.682293Q41.128124 53.791668 41.628124 54.494793Q42.128124 55.197918 42.846874 55.197918Q43.58125 55.197918 44.065624 54.494793Q44.565624 53.791668 44.565624 51.682293Q44.565624 49.557293 44.065624 48.869793Q43.58125 48.166668 42.83125 48.166668Q42.1125 48.166668 41.675 48.776043Q41.128124 49.557293 41.128124 51.682293Z" fill-rule="nonzero"/><path stroke="#ff00ff" stroke-width="4.0" stroke-linecap="butt" d="M233.0 25.55L245.0 25.55" fill-rule="nonzero"/><path fill="#1a1a1a" d="M262.64062 20.659374L256.21875 20.659374Q255.65625 20.659374 255.32812 20.971874Q255.04688 21.284374 255.04688 21.83125L255.04688 24.628124Q255.04688 25.096874 255.32812 25.378124Q255.625 25.675 256.15625 25.675L262.8125 25.675Q263.10938 25.675 263.09375 25.378124Q263.09375 25.08125 262.78125 25.08125L256.21875 25.08125Q255.95312 25.08125 255.84375 24.971874Q255.75 24.878124 255.75 24.659374L255.75 21.690624Q255.75 21.45625 255.85938 21.3625Q255.98438 21.26875 256.23438 21.26875L262.6875 21.26875Q262.82812 21.26875 262.89062 21.159374Q262.96875 21.08125 262.96875 20.95625Q262.95312 20.83125 262.875 20.753124Q262.78125 20.659374 262.64062 20.659374ZM258.65625 26.315624L258.65625 28.7375L254.45312 28.7375Q254.29688 28.7375 254.20312 28.815624Q254.10938 28.909374 254.10938 29.034374Q254.09375 29.14375 254.15625 29.2375Q254.23438 29.33125 254.35938 29.33125L263.5625 29.33125Q263.71875 29.33125 263.8125 29.2375Q263.90625 29.14375 263.90625 29.034374Q263.90625 28.909374 263.8125 28.815624Q263.71875 28.7375 263.54688 28.7375L259.34375 28.7375L259.34375 26.3625Q259.34375 26.190624 259.21875 26.096874Q259.125 26.003124 259.0 26.003124Q258.85938 26.003124 258.76562 26.08125Q258.65625 26.159374 258.65625 26.315624ZM271.48438 20.6125L267.76562 20.6125Q267.23438 20.6125 266.92188 20.925Q266.625 21.221874 266.625 21.690624L266.625 23.925Q266.625 24.4875 266.98438 24.8Q267.32812 25.1125 267.9375 25.1125Q269.4375 25.1125 270.51562 24.971874Q271.89062 24.8 272.90625 24.39375Q273.0625 24.315624 273.125 24.175Q273.17188 24.065624 273.125 23.940624Q273.0625 23.815624 272.95312 23.76875Q272.8125 23.70625 272.67188 23.784374Q271.6875 24.175 270.48438 24.3625Q269.42188 24.51875 267.96875 24.51875Q267.64062 24.51875 267.48438 24.3625Q267.32812 24.20625 267.32812 23.878124L267.32812 21.83125Q267.32812 21.4875 267.4375 21.3625Q267.5625 21.221874 267.92188 21.221874L271.46875 21.221874Q271.8125 21.221874 271.82812 20.909374Q271.82812 20.6125 271.48438 20.6125ZM274.4375 22.909374L274.4375 20.659374Q274.4375 20.33125 274.07812 20.33125Q273.75 20.33125 273.75 20.659374L273.75 25.1125Q273.75 25.26875 273.84375 25.3625Q273.9375 25.440624 274.07812 25.440624Q274.21875 25.440624 274.3125 25.3625Q274.4375 25.26875 274.4375 25.1125L274.4375 23.503124L275.71875 23.503124Q276.01562 23.503124 276.01562 23.190624Q276.01562 22.909374 275.71875 22.909374L274.4375 22.909374ZM273.39062 26.08125L267.51562 26.08125Q267.17188 26.08125 267.15625 26.378124Q267.15625 26.675 267.51562 26.675L273.28125 26.675Q273.53125 26.675 273.64062 26.753124Q273.75 26.846874 273.75 27.05L273.75 27.3625Q273.75 27.534374 273.60938 27.596874Q273.51562 27.675 273.28125 27.675L268.21875 27.675Q267.70312 27.675 267.45312 27.925Q267.20312 28.175 267.20312 28.6125L267.20312 29.20625Q267.20312 29.58125 267.45312 29.8Q267.6875 30.01875 268.07812 30.01875L274.42188 30.01875Q274.57812 30.01875 274.67188 29.925Q274.75 29.83125 274.75 29.721874Q274.75 29.596874 274.65625 29.503124Q274.5625 29.425 274.40625 29.425L268.29688 29.425Q268.07812 29.425 267.98438 29.346874Q267.89062 29.284374 267.89062 29.096874L267.89062 28.675Q267.89062 28.471874 267.98438 28.378124Q268.07812 28.26875 268.3125 28.26875L273.51562 28.26875Q273.9375 28.26875 274.1875 28.01875Q274.4375 27.8 274.4375 27.425L274.4375 26.971874Q274.4375 26.55 274.15625 26.315624Q273.875 26.08125 273.39062 26.08125ZM282.65625 20.70625Q282.65625 22.190624 281.4375 23.175Q280.35938 24.05 278.875 24.175Q278.6875 24.175 278.60938 24.284374Q278.53125 24.39375 278.53125 24.51875Q278.5625 24.64375 278.67188 24.7375Q278.78125 24.83125 278.95312 24.8Q280.40625 24.596874 281.5625 23.83125Q282.65625 23.096874 283.0 22.159374Q283.35938 23.08125 284.45312 23.83125Q285.59375 24.596874 286.96875 24.8Q287.17188 24.83125 287.3125 24.7375Q287.4375 24.64375 287.45312 24.51875Q287.48438 24.378124 287.40625 24.26875Q287.3125 24.159374 287.14062 24.14375Q285.64062 23.9875 284.57812 23.14375Q283.34375 22.175 283.34375 20.70625Q283.34375 20.51875 283.21875 20.425Q283.125 20.33125 283.0 20.33125Q282.85938 20.33125 282.76562 20.425Q282.65625 20.51875 282.65625 20.70625ZM287.57812 26.05L278.45312 26.05Q278.125 26.05 278.10938 26.346874Q278.10938 26.659374 278.40625 26.659374L282.65625 26.659374L282.65625 29.8Q282.65625 29.95625 282.76562 30.065624Q282.85938 30.14375 283.0 30.14375Q283.125 30.14375 283.21875 30.05Q283.34375 29.95625 283.34375 29.784374L283.34375 26.659374L287.59375 26.659374Q287.90625 26.659374 287.90625 26.346874Q287.89062 26.05 287.57812 26.05Z" fill-rule="nonzero"/><path stroke="#3d85c6" stroke-width="4.0" stroke-linecap="butt" d="M308.0 25.55L320.0 25.55" fill-rule="nonzero"/><path fill="#1a1a1a" d="M331.64062 20.64375Q330.5625 20.64375 330.0 21.940624Q329.48438 23.096874 329.48438 24.940624Q329.48438 26.753124 330.0 27.909374Q330.5625 29.221874 331.64062 29.221874Q332.71875 29.221874 333.29688 27.909374Q333.8125 26.753124 333.8125 24.940624Q333.8125 23.096874 333.29688 21.940624Q332.71875 20.64375 331.64062 20.64375ZM331.64062 21.2375Q332.39062 21.2375 332.76562 22.346874Q333.10938 23.33125 333.10938 24.940624Q333.10938 26.51875 332.76562 27.503124Q332.39062 28.628124 331.64062 28.628124Q330.89062 28.628124 330.51562 27.503124Q330.1875 26.51875 330.1875 24.940624Q330.1875 23.33125 330.51562 22.346874Q330.89062 21.2375 331.64062 21.2375ZM335.26562 20.675L335.26562 22.95625L333.5625 22.95625Q333.20312 22.95625 333.20312 23.253124Q333.20312 23.55 333.5625 23.55L335.26562 23.55L335.26562 26.26875L333.53125 26.26875Q333.20312 26.26875 333.20312 26.565624Q333.20312 26.8625 333.54688 26.8625L335.26562 26.8625L335.26562 29.8Q335.26562 29.95625 335.375 30.065624Q335.46875 30.159374 335.60938 30.159374Q335.75 30.159374 335.84375 30.065624Q335.95312 29.95625 335.95312 29.8L335.95312 20.659374Q335.95312 20.503124 335.84375 20.425Q335.75 20.33125 335.60938 20.346874Q335.46875 20.346874 335.375 20.425Q335.26562 20.51875 335.26562 20.675ZM338.09375 29.8L338.09375 20.659374Q338.09375 20.503124 337.96875 20.425Q337.875 20.33125 337.75 20.33125Q337.60938 20.33125 337.51562 20.425Q337.40625 20.51875 337.40625 20.659374L337.40625 29.8Q337.40625 29.95625 337.51562 30.065624Q337.60938 30.159374 337.75 30.159374Q337.875 30.159374 337.96875 30.065624Q338.09375 29.95625 338.09375 29.8ZM344.1875 20.55Q342.90625 20.55 342.15625 21.284374Q341.48438 21.971874 341.48438 22.971874Q341.48438 23.95625 342.15625 24.628124Q342.90625 25.3625 344.1875 25.3625Q345.45312 25.3625 346.17188 24.628124Q346.84375 23.95625 346.84375 22.971874Q346.84375 21.971874 346.17188 21.284374Q345.4375 20.55 344.1875 20.55ZM344.1875 21.159374Q345.14062 21.159374 345.67188 21.70625Q346.17188 22.20625 346.17188 22.971874Q346.17188 23.721874 345.67188 24.221874Q345.14062 24.784374 344.1875 24.784374Q343.21875 24.784374 342.67188 24.221874Q342.1875 23.721874 342.1875 22.971874Q342.1875 22.20625 342.67188 21.70625Q343.21875 21.159374 344.1875 21.159374ZM349.4375 22.065624L349.4375 20.659374Q349.4375 20.33125 349.07812 20.33125Q348.75 20.33125 348.75 20.659374L348.75 25.346874Q348.75 25.51875 348.84375 25.6125Q348.9375 25.70625 349.07812 25.70625Q349.21875 25.70625 349.3125 25.6125Q349.4375 25.51875 349.4375 25.346874L349.4375 24.8625L350.73438 24.8625Q351.01562 24.8625 351.01562 24.55Q351.01562 24.26875 350.73438 24.26875L349.4375 24.26875L349.4375 22.675L350.73438 22.675Q351.01562 22.675 351.01562 22.3625Q351.01562 22.065624 350.73438 22.065624L349.4375 22.065624ZM348.28125 26.675L342.23438 26.675Q341.90625 26.675 341.90625 26.9875Q341.90625 27.284374 342.23438 27.284374L348.28125 27.284374Q348.51562 27.284374 348.64062 27.39375Q348.75 27.4875 348.75 27.70625L348.75 29.8Q348.75 29.95625 348.84375 30.065624Q348.9375 30.14375 349.07812 30.14375Q349.21875 30.14375 349.3125 30.065624Q349.4375 29.95625 349.4375 29.8L349.4375 27.70625Q349.4375 27.221874 349.14062 26.940624Q348.84375 26.675 348.28125 26.675ZM357.65625 20.70625Q357.65625 22.190624 356.4375 23.175Q355.35938 24.05 353.875 24.175Q353.6875 24.175 353.60938 24.284374Q353.53125 24.39375 353.53125 24.51875Q353.5625 24.64375 353.67188 24.7375Q353.78125 24.83125 353.95312 24.8Q355.40625 24.596874 356.5625 23.83125Q357.65625 23.096874 358.0 22.159374Q358.35938 23.08125 359.45312 23.83125Q360.59375 24.596874 361.96875 24.8Q362.17188 24.83125 362.3125 24.7375Q362.4375 24.64375 362.45312 24.51875Q362.48438 24.378124 362.40625 24.26875Q362.3125 24.159374 362.14062 24.14375Q360.64062 23.9875 359.57812 23.14375Q358.34375 22.175 358.34375 20.70625Q358.34375 20.51875 358.21875 20.425Q358.125 20.33125 358.0 20.33125Q357.85938 20.33125 357.76562 20.425Q357.65625 20.51875 357.65625 20.70625ZM362.57812 26.05L353.45312 26.05Q353.125 26.05 353.10938 26.346874Q353.10938 26.659374 353.40625 26.659374L357.65625 26.659374L357.65625 29.8Q357.65625 29.95625 357.76562 30.065624Q357.85938 30.14375 358.0 30.14375Q358.125 30.14375 358.21875 30.05Q358.34375 29.95625 358.34375 29.784374L358.34375 26.659374L362.59375 26.659374Q362.90625 26.659374 362.90625 26.346874Q362.89062 26.05 362.57812 26.05Z" fill-rule="nonzero"/></svg>